<?xml version="1.0" encoding="utf-8"?>
<!-- Generator: Adobe Illustrator 21.0.2, SVG Export Plug-In . SVG Version: 6.00 Build 0)  -->
<svg version="1.1" id="Layer_1" xmlns="http://www.w3.org/2000/svg" xmlns:xlink="http://www.w3.org/1999/xlink" x="0px" y="0px"
	 viewBox="0 0 2040 1078" style="enable-background:new 0 0 2040 1078;" xml:space="preserve">
<style type="text/css">
	.st0{fill:#FFFFFF;stroke:#C7DDEB;stroke-miterlimit:10;}
	.st1{fill:#EDF2F1;stroke:#C7DDEB;stroke-miterlimit:10;}
	.st2{fill:#DEFAE3;stroke:#C7DDEB;stroke-miterlimit:10;}
	.st3{fill:#7A7A7A;}
	.st4{font-family:'OpenSans';}
	.st5{font-size:12px;}
	.st6{display:none;}
	.st7{display:inline;fill:none;stroke:#FF0000;stroke-width:4;stroke-miterlimit:10;}
	.st8{display:inline;fill:none;stroke:#0067F3;stroke-width:5;stroke-linecap:round;stroke-miterlimit:10;}
	.st9{display:inline;fill:#284FE8;}
</style>
<g id="_x3C_Group_x3E_">
	<path class="st0" d="M128.3,99.8c0-4.4,0-8.8,0-13.3c3.4,0,5.7-1.3,7.1-3.8c3.4,0,5.7-1.3,7.1-3.8c10-1,15.4-7.2,21.1-12.6
		c7.5-7,15.1-10.1,26.3-5.5c3.4,1.4,8,2.8,15.4,0.7c-11.2-2.8-19.5-4.9-28-6.9c-2.8-0.7-5.6-0.2-7.6,1.6c-9,7.7-19.6,14.1-27.3,22.8
		c-3.4,0-6.8,0-7.1,3.8c-2.4,0-4.7,0-7.1,0c0-41,0-82.1,0-123.1c0.8-0.6,1.6-1.3,2.4-1.9c9.4,0,18.8,0,28.2,0
		c0.1,4.6,4.4,5.3,8.6,6.4c7.4,2,14.6,4.2,20.7,8.5c13.4,9.6,27.1,18.6,46.5,19.8c5.4,0.3,11.5,1.7,16.1,5.1
		c0.8,7.1-7.8,11.9-7.1,18.9c-8.5,3-9.2,9.4-10.7,15.5c5.8-4.2,8.8-9.6,10.7-15.5c3.7-1.2,5.1-3.9,6.3-6.4c3-6.2,6.2-7.9,12.8-2.2
		c4.7,4.1,11.2,6.6,18.6,6.7c5.3,2.1,10.7,3.9,15.7,6.4c13.6,6.7,27.4,8.5,42.2,2.5c7.9-3.2,16.5-4.1,25.2-3
		c6.5,0.8,12.4,2.8,10.5,9.9c-2.8,10.6,2,18.8,12.5,25.3c7.5,4.6,14.9,9.2,22.2,13.8c27.5,17.4,57.5,30.4,92.7,33.7
		c14.4,1.3,28.8,2.4,40.4-7.7c5.2-4.5,12.4-7.6,18.2-11.7c7-5,13.3-5.4,20.7-0.4c6.8,4.6,13.6,9.3,21.4,12.6
		c18.1,7.7,39.9,8.4,56.5,20.8c1.8-8.3-3.8-10-10.1-11.9c-21.4-6.4-43.6-10.5-61-24.7c-12.3-10.1-30.7-6.4-40.7,4.9
		c-2.5,2.9-5.9,5-10.1,6.3c-17.2,5.6-35.6,7.1-53,3.7c-35.6-7.1-64-25.5-93.2-42.3c-5.5-3.1-7.5-8.9-5.7-14.5c3-9-3.4-14.5-11.1-19
		c-7.9-4.6-16.1-9-26.8-4c-13.6,6.3-27.6,9.7-43.3,3.4c-10.3-4.1-18.6-10.1-27.9-15.2c1.1-9.5-5.6-14.2-16.4-11.4
		c-28.4-4-52.5-15.5-76.3-27.7c-3.1-1.6-4-3.7-3.8-6.4c18.8,0,37.7,0,56.5,0c0.5,6.2-2.8,11.6-5.8,17c-1.4,2.6,0,4.3,2.9,5.2
		c1.9,0.5,5,0,4.1-1.8c-4.2-8.1,4.9-13.4,5.8-20.4c144.3,0,288.7,0,433,0c0.2,1.7-0.5,4.3,1.8,4.5c4,0.3,2.3-2.8,2.9-4.5
		c38.4,0,76.9,0,115.3,0c0.9,1.7,1.4,3.7,2.9,5c15.1,13.2,32.5,24.5,48.8,36.7c13.1,9.8,28.9,17.5,38.8,29.9
		c19.5,24.3,39.3,48.4,57.8,73.1c6.4,8.5,9.3,18.8,13.8,28.4c-3.9,0.7-5.1-0.7-6.7-1.6c-13.3-7.7-25.4-16.8-40.7-22.1
		c-2.8-0.9-6.1-2.9-8.1,0.4s0.7,5.5,4.4,6.5c11.3,2.9,22,7.4,30.3,13.7c11.2,8.5,26.3,14.8,29.5,29c1,4.2-2.1,8.3,1.6,12.7
		c6.7,7.7,13,15.7,17.8,24.2c5.9,10.2,15.2,19,18.9,30.1c10.8,32.2,23.1,64,36.5,95.6c5.3,12.5,16.5,22,24.8,33
		c1.7,2.3,4.8,3.3,8.1,3.1c14.9-0.8,29.5,2.9,44.4,2c35.4-2.1,70.6-5.5,106.2-6.3c10.8-0.2,21.9-0.1,32.6-1.5
		c13.9-1.8,28.2,0.2,41.7-3.6c53.5-15.1,106.9-30.4,160.3-45.8c5.5-1.6,10.3-1.4,15.9-0.1c34.8,7.8,68.4,18.4,99.9,32.4
		c19.6,8.8,39.6,14,61.7,15.9c7.7,0.6,14.2,1,21.4-1.7c24.4-9.4,49.7-16.5,76.6-20.1c15.9-2.1,30.8-0.2,45.5,4.6
		c25.6,8.4,43.4,24,60.1,40.9c12.5,12.7,24.1,26.1,39.2,37.1c23.5,17,48.8,32.5,69.1,52.3c0,1.7,0.1,3.5,0.1,5.2
		c-3.2,1.4-6.4,2.8-9.7,4.2c-1.1,0.3-2.8,0.4-3.1,1c-3.8,7.3-3.5,17.8-19.2,15.6c0.3,0.8,0.7,1.6,1,2.3c-0.2,8.3-8.7,13.5-12,21.1
		c-6,14-16.6,28.1-32.1,37.2c-8.5,5-13.9,10.2-17.2,17.6c-13.4,4.4-17.4,13.9-18.3,24.1c-1,10.3-1,20.8,0,31.1
		c1.2,11.7,1,24.1,10.9,34c11,10.9,17.6,23.5,24.7,36.2c7,12.5,14.1,25.1,25.4,35.7c-2.8,8.6,2.4,22.2,12.1,25.6
		c16.4,5.8,24.7,18.2,36.2,27.6c6.8,5.6,12.4,9.8,22.2,9.3c0.1,0.6,0.1,1.2,0.1,1.9c-3.6,3.1-2.6,4.9,2.4,5.6l0,0
		c0.4,4.8,4.3,5.8,9.3,5.7c0.8,0.7,1.6,1.3,2.5,2c0.7,6.2,6.6,5.5,11.8,5.6c-0.1,7.8,8.4,7.5,14.2,9.7c-0.2,2.7,0.1,5.2,4.6,5.4l0,0
		c0.2,2.4,1.9,5.6,4.1,5c11.2-3.4,17.6,4.5,26.5,6.4c0,20.8,0,41.7,0,62.5c-17.2,1.8-24.9-12-38.9-15.7
		c9.7,12.3,27.3,16.8,38.9,27.1c0,38.5,0,77,0,115.5c-1.2,0.5-3.3,0.8-3.5,1.5c-0.5,2,1.8,2,3.5,2.3c0,16.4,0,32.8,0,49.2
		c-5.5,0.5-6.2,4.3-7.3,7.5c-7,21.5-14,43-20.9,64.4c-151.4,0-302.8,0-454.2,0c-0.6-4.7-3.8-8.2-8.1-11.2
		c-15.6-10.9-31.6-21.5-46.8-32.8c-11.3-8.5-25.3-15.4-30.3-28.2c-8.3-21.3-16.2-42.7-24.3-64.1c-2.1-5.7-2-11.1,1.9-16.4
		c18.1-24.8,23.2-51,13.4-78.9c-2.2-6.2-6.4-9.4-14.1-11c-22.1-4.7-43.3,1.2-64.9,2.5c-18.2,1.1-35.9,11.6-54.7,2.1
		c-0.5-0.2-1.7,0-2.2,0.3c-7.5,5.2-14,0.6-20.6-1.5c-20.9-6.7-40.4-16.9-64-17.2c-10.4-0.1-13.3-4-9.6-12.5
		c-5.4,4.9-8,10.4-17.9,9.1c-19.4-2.6-37.4-8.2-52.6-17.5c-26.3-16.1-54.9-23.1-87.7-20.3c-10.9,0.9-21.9,0.3-32.9,0.1
		c-23.5-0.3-47-0.9-68.6-9.4c-17.7-7-36.9-11.6-52.6-22c-13.1-8.7-25-19.3-42.1-23.5c-28.8-7-57.6-13.9-86.4-21
		c-36.6-8.9-74-15.9-109.9-26.6c-12.3-3.7-23.6-8.1-31.9-16.8c-22-22.8-44.4-45.4-66.1-68.4c-13-13.8-19.6-29.2-13-46.9
		c2.7-7.1,3.9-15,18.5-9.4c-9.5-2.6-12.8-10.1-21.6-12.4c-18.9-4.9-30.1-17.7-43-28.5c-4.3-3.6-3.7-8.6-2.9-13.5
		c1.5-9,8-16.2,12.6-24.1c4.9-8.3,5-16.2-1.9-24c-4.7-5.3-10-10.6-11.2-17.5c-1.8-9.8-6.3-18.8-13.6-26.8
		c-6.8-7.4-12.6-15.2-15.8-24.1c-1.9-5.2-5.8-9.4-9.6-13.8c-11.7-13.6-25.9-26.2-31.2-42.9c-1.6-5.1-6.1-7.8-11.2-10.3
		c-17.8-8.6-34.3-18.9-49.3-30.1c-13.2-9.9-25.3-21.3-29.5-36.3c-1-3.7-4.5-5.8-7.8-7.9c-6.4-4.1-12.7-8.4-19.4-12.1
		c-12.6-7.1-23.6-17.2-40.7-16.9c-8.2,0.2-10.4-2.7-9.6-8.5c1.2-7.8-2.2-12.8-12.7-13.8c-4.2-0.4-8.3-1.8-12.5-2.6
		c-5.5-1-8-2.9-5.9-8c3-7.1,4.4-14.7,7.5-21.8c3.6-8.3,1.2-14.6-6.9-20.1c-15.7-10.9-30.9-22.3-43.7-35.4
		c-8-8.1-20.7-14.4-19.9-26.7c1-13.8-0.5-14.1-17.1-17.1C162,111.5,141.8,112.8,128.3,99.8z M1927.3,837c0.9,0.5,1.8,1,2.7,1.4
		c1.2,0.5,1.6,0.1,1-0.8c-0.5-0.7-1.3-1.3-2-1.9c-0.5,0.4-0.9,0.7,2.1,2.7c0.3,1.1,0.3,2.1,0.9,2.8c1.2,1.5,3.4,3.7,4.9,1.4
		C1938.4,840.3,1935,839.2,1927.3,837z M1827.6,795c-2.4-3-4.9-5.5-9.4-2c-1.6,0-3.2,0-4.8,0.1c-0.6,0-1.3,0-1.9,0.1
		c-1-0.7-1.9-1.4-2.9-2.1c-2.2-4.6-6.1-5.8-11.6-3.7c-3.5-0.7-8.4,1.9-10.4-1.9c-3.6-6.9-8.3-9.4-15.6-5.9
		c-5.7,2.8-10.3,1.8-15.5,0.3c-8.9-2.6-17.8-5.1-29.1-8.4c5.6,5.1,10.7,6.6,15.5,8.6c9,3.8,24.2,0.3,25.7,13.5
		c0,0.4,2.1,1.1,2.9,0.9c9.8-2.2,17.3,4.3,26.4,4.4c0.7,1.4,1,3.4,2.3,4.1c10.2,5.7,23,2.9,34.1,6.7c4.5,1.5,4.9-3.9,7.5-6
		c2-1.6,4.3-0.1,6.5,0.2c3.1,0.3,6,3.1,10,0.6c-3.5-4.9-17.7-2.6-11.2-13.7c-5.3,2-8.5,3.2-11.6,4.3
		C1832.3,795,1829.9,795,1827.6,795z M866.9,96c6-8.3,1.5-13.9-4.6-19.6c-6.2-5.9-10.1-14.3-21.1-15.2c-17.8-1.5-35.9-3.7-53.1,2.5
		c-16.8,6.1-30.6,16.7-48.9,20.9c-5.9,1.4-9.2,6.8-8.3,12.4c1.1,7-1.8,13.7-2.8,20.5c-1.2,8.5-9.1,12.3-20.2,11.2
		c-12.9-1.3-25.2-3.4-35-11.2c-2-1.6-6.4-4.4-8.9-0.9c-1.8,2.5,2.4,4.2,4.9,5.6c13.1,7.2,27.8,11.6,43.3,13.4
		c19.4,2.2,31.2-8.9,26.8-24.3c-1.5-5.4-0.6-10.7-1.1-16c-0.4-4.7,1.8-6.4,7.9-7c8.5-0.9,17.5-3.4,23.1-8.2
		C784.5,66.7,803,62.5,825,63.7c12.6,0.7,21.6,4.5,27.2,13.6C856.1,83.7,859.6,90.4,866.9,96z M1533.8,393.6c-5-0.8-6.8,1.3-7.7,5.6
		c-2.9,14.7-6.2,29.4-9.9,44c-1,4.2-3.5,8.2,4.2,9.5c6.6,1.1,12.6,0.6,15.2-5.4c1.3-2.9,2-6.1,2.4-9.2c1.6-12.4,2.7-24.9,4.5-37.3
		C1543.2,395.5,1541.3,392.8,1533.8,393.6z M658.2,94.5c1.1,0.2,2.2,0.5,3.3,0.7c7.7-19.9,15.6-39.8,21.5-60.1
		c-1.1-0.2-2.2-0.5-3.2-0.7C672.5,54.4,665.3,74.5,658.2,94.5z M1902.6,999.4c12,4.3,24.1,8.7,36.1,13c0.4-0.8,0.8-1.5,1.2-2.3
		C1928.3,1005.1,1917.1,999.2,1902.6,999.4z M1979.5,871.3c-3.2-4.7-6.7-9.2-14.3-10.4C1968.4,865.6,1971.9,870.1,1979.5,871.3z
		 M1942.4,847.6c7.4,10.1,9.2,11.3,17,11.8C1955,854.9,1951.3,850.7,1942.4,847.6z M229.5,34.7c-6.2,6.2-9.6,10.9-11.3,19.2
		C225,47.6,228.3,42.9,229.5,34.7z M1885.8,814c-7.9-2.5-12.9-4.9-19.4-3.8C1871.8,811.5,1875.7,816.6,1885.8,814z M1916.2,823.6
		c-7.1-2-10.9-5.2-19.5-4.4C1903.4,822.4,1907.1,826,1916.2,823.6z M1976.8,1020.4c-4.5-1.3-8.6-4.5-16.8-1.5
		C1967.6,1020.3,1971.7,1022.6,1976.8,1020.4z M686.6-20.1c0,4.4,0,8.2,0,12.4C691.3-13.7,691.3-13.7,686.6-20.1z M1956.1,1015.7
		c-3.8-0.8-7.7-1.5-11.5-2.3C1950,1017.4,1950,1017.4,1956.1,1015.7z M683.7,16.4c-2.8,3.9-2.6,6.6-1.2,10.2
		C685.8,23.3,687.2,20.8,683.7,16.4z M684.6,10.3c3.4-4.1,5-6.7,1.4-10.8C683.2,3.1,683.6,5.9,684.6,10.3z M1993.1,876.9
		c1.2,0.7,2.6,1.7,4.1,2.4s3.2,0.5,3.5-1c0.3-1.8-1.5-2.7-3.4-3.2C1995.7,874.6,1994.3,874.8,1993.1,876.9z M210.1,66.1
		c3.6-3.1,5.9-5.1,3.8-9.8C211.5,59.5,208.7,61.2,210.1,66.1z M1985.4,1021.6c2.5,0.8,4.7,4.2,8.6,0.4
		C1991.3,1020.1,1988.6,1020.1,1985.4,1021.6z M2008.7,1022.5c-1.5,0.1-3.3,0.1-3.3,1.7s1.8,1.7,3.3,1.7s3.3-0.1,3.3-1.7
		S2010.2,1022.6,2008.7,1022.5z M2027.9,1024.2c-2.1,0.5-4.2,0.5-3.5,2.2c0.3,0.7,2.3,1.3,3.6,1.4c1.4,0.1,3.5-0.2,2.8-1.9
		C2030.4,1025,2028.6,1024.6,2027.9,1024.2z M1305.2,891.1c3.1-0.3,4.2-0.9,3.7-1.8c-0.5-1-1.6-2.2-2.8-2.5c-1.7-0.5-2.7,0.6-2.2,2
		C1304.2,889.9,1305.1,891,1305.2,891.1z M1330.1,907.6c-2.3-0.9-3.6-1.5-4.9-1.8c-1.7-0.4-3.1,0.4-2.5,1.8c0.4,0.9,1.8,1.7,3,2.2
		C1326.1,909.9,1327.2,909,1330.1,907.6z M249.5-18.8c0.4-1.5-0.6-2.2-1.8-2.2c-1,0-2.4,0.5-2.7,1.1c-0.7,1.1,0.5,1.8,1.8,1.8
		C247.7-18,248.7-18.5,249.5-18.8z M1919.9,828.4c0.3-0.5,0.9-1.1,0.7-1.5c-0.2-0.4-1.2-0.5-1.8-0.7c-0.3,0.5-0.9,1.1-0.7,1.5
		C1918.3,828,1919.3,828.2,1919.9,828.4z M1987,871.6c-0.3,0.5-0.5,1-0.8,1.5c0.6,0.2,1.4,0.7,1.9,0.6c0.4-0.1,0.9-1,0.8-1.4
		C1988.6,871.9,1987.6,871.8,1987,871.6z M259.2-18.1c-0.6-0.2-1.4-0.7-1.9-0.6s-0.9,1-0.8,1.4c0.2,0.4,1.3,0.8,1.7,0.6
		C258.8-16.8,258.9-17.6,259.2-18.1z M684.3-31.6c0.3-0.5,0.9-1.1,0.7-1.5c-0.2-0.4-1.2-0.5-1.8-0.7c-0.3,0.5-0.9,1.1-0.7,1.5
		C682.7-31.9,683.7-31.8,684.3-31.6z M1313.6,894.9c-0.6-0.2-1.4-0.7-1.9-0.6c-0.5,0.1-0.9,1-0.8,1.4c0.2,0.4,1.3,0.8,1.7,0.6
		C1313.1,896.2,1313.3,895.4,1313.6,894.9z"/>
	<path class="st0" d="M128.3,342.3c0-75.1,0-150.3,0-225.4c17.3-2.2,32.5,5.9,49.3,6.6c7.9,0.3,10.6,3.9,9.7,10.1
		c-1.2,7.7,2.3,14.3,8.8,19.8c14.5,12.4,27.2,26.7,44.1,36.5c19.7,11.4,17.3,23.2,10.7,38.1c-8.4,19.1-6.8,20.6,17.7,25.5
		c1.5,0.3,3,1,4.5,1.1c7.2,0.4,8.4,3.8,8.4,9c0,14.4,0.3,14.4,18,14.4c10.4,0,53.1,22.8,56.8,30.4c0.3,0.6,0.1,1.3,0.4,1.9
		c9.4,14.5,19.5,28.6,34.9,39.5c25.2,17.7,58.9,28.9,69.4,58c0.6,1.7,2.5,3.2,3.9,4.7c7,7.9,15.6,15.2,20.9,23.7
		c15.3,24.6,29.1,49.7,43.8,74.5c4.1,7,5.7,13.4-0.4,20.4c-3.3,3.8-6,8.3-7.5,12.8c-2.6,8-8,16.7-2.9,24.6
		c8.9,13.9,22.1,25.2,39.7,32c10,3.8,12.8,7.5,10,16.4c-6.6,20.6-2,39.8,15,56.8c16.6,16.6,32.4,33.8,49.3,50.2
		c13.4,12.9,25,27.2,46.2,33.7c52.3,16.1,106.9,25.9,160.2,39.3c27.9,7,55.3,13.4,78.6,29.6c30.1,20.9,66.3,32.6,106.5,34.9
		c5.5,0.3,11.1-0.3,16.4,0.5c6.2,0.9,3.8,7.6,11.8,12.7c-9.6-16.3,2.8-13,10.9-13.1c10.2-0.2,20.5-0.7,30.6,0.2
		c7.4,0.7,18-4.9,21.6,5.7c0.1,0.2,2.6,0.3,2.8,0c3.5-6.6,8.7-1.9,12.7-1c10.4,2.3,17.6,9,26.6,13.4c12.8,6.2,29.8,9.5,26.1,29.1
		c2.6-3.8,3.4-4.5,3.6-5.3c1.3-6.7,3.2-11.6,13.9-6.8c4.8,2.1,11.4,1.8,17.1,2.6c24.9,3.4,51,4.2,73.3,14.7
		c30.4,14.4,61.5,13.3,94.1,7.1c19.3-3.7,39.1-5.9,59.2-4.8c5.6,0.3,11.3,0.1,13.4,5.5c4.3,11.1,8.5,21.8,5.4,34
		c-3.7,14.7-9.9,28.4-18.4,41.6c-2.6,4-5,8.2-3.4,12.6c9.3,25.3,17.8,50.9,28.9,75.7c8,17.9,31.2,25.8,46.5,39.1
		c10.5,9.1,26.2,14,32.6,26.3c-98.1,0-196.1,0-294.2,0c6.5-11.2,16.3-20.7,20.1-33.4c7.6-25.2,1.7-34.7-22.3-47.6
		c-20.8-11.1-43.5-19.9-66-28.7c-28.3-11.1-57.9-8.5-86.4-1c-15.4,4.1-29.5,11.5-43.7,18.2c-21.8,10.2-44.4,17-70.1,14.8
		c-7-0.6-13.9-1.4-20.9-1.9c-30-2.1-56.8-11.1-76.6-29.1c-20.9-19-40.6-39-62.7-57.2c-4.3-3.5-3.5-6.5-1.8-10.2
		c10.2-21.2,22.4-41.6,36.1-61.4c4.8-7,12.8-13.1,12.9-21.9c0.2-17.9,0.7-35.4-8.3-52.8c-9.3-17.9-21.5-32.2-43.8-40.6
		c-9.5-3.6-19.2-4.3-29.1-5.8c-22.8-3.5-60,9.1-65,30.1c-2.8,11.8-14.2,19.1-28.3,23.4C687,850,673.7,853.4,662,859
		c-30.5,14.4-57.9,7.5-84.4-6.5C556.1,841.1,536,828.2,516,815c-14.7-9.8-15.3-9.4-8.1-23.2c11.9-22.7,18-45.2-3.2-66.8
		c-4.5-4.6-6.4-9.3-7.6-15.2c-1.4-6.4-1.9-16.5-13.5-16.6c-22.2-0.2-43.8,3-59.2,18c-8,7.8-15.6,8-25.5,1.5
		c-18.1-11.8-16.8-27.2-12.7-43c5.5-20.9,2.3-40.5-11.3-58.8c-5.8-7.7-12.4-8.1-20.4-2c-2.7,2-5.3,3.1-8.1,1.4
		c-2.9-1.8-4.7-4.3-1.8-7.3c2.9-3,5.5-6.2,8.7-8.9c5.7-4.8,12.1-9.6,14.6-15.7c9.4-22.8,25.8-44.2,21.6-69.7
		c-0.2-0.9-0.3-2.1,0.3-2.8c9.9-12.5,1-21-10.1-28.2c-20.3-13.1-35.6-29.9-53.5-44.8c-14.2-11.8-30.7-21.3-51.5-24.5
		c-16.7-2.6-30.2-10.2-37.5-21.7c-4.6-7.2-8.6-15.1-12.5-22.8c-9-17.5-26.3-27.4-48.4-28.4C160.6,334.8,144.1,338.6,128.3,342.3z
		 M1086.2,895.4c1.3,2.5,3.7,3.8,7.1,3.8c1.3,2.5,3.7,3.8,7.1,3.8c4,5.1,7.6,4.8,10.9-0.5c3-4.8,6.3-9.5,8.7-14.4
		c2-4.1,3.3-8.5-2.6-14.5c0,3.9,0,5.7,0,7.4c0.1,8.1-9.1,20-17,22c-0.3-3.8-3.6-3.8-7.1-3.8C1093,895.4,1089.6,895.4,1086.2,895.4
		c-0.3-3.8-3.6-3.8-7.1-3.8c-6-9.9-19.9-8.5-29.5-13.3c8.4,6.4,19,9.9,29.5,13.3C1080.5,894.1,1082.8,895.4,1086.2,895.4z
		 M1218,942.8c1.3,2.5,3.7,3.8,7.1,3.8c4.6,4.9,11.5,7.3,18,10.1c4.7,2,9.7,1,11.7-1.6c6.3-8.5,7.8-18.2,8-28
		c-3.4,6.3-5.3,13-7.5,19.5c-2.4,6.9-7.2,9.6-15.4,4.9c-4.5-2.6-8.9-5.2-14.8-4.9C1224.8,942.8,1221.4,942.7,1218,942.8
		c-0.6-4-4.4-5.1-8.3-5.4c-10-0.8-20.1-0.7-28.4-6.6c-2.2-1.6-5.9,0.1-6.6,2.2c-0.8,2.5,2.8,2.5,4.8,2.9
		C1192.3,938.2,1205.2,940.4,1218,942.8z M1264.8,919.8c1-1.1,2-1.7,2-2.4s-1-1.4-1.6-2.1c-0.7,0.6-1.9,1.1-2,1.7
		C1263.2,917.7,1264.1,918.5,1264.8,919.8z M1114.8,919.1c0.4,0.5,0.7,1.6,1.5,1.9c1.4,0.5,2.3-0.5,2.2-1.4c0-0.8-0.6-1.9-1.3-2.2
		C1115.9,916.8,1115.3,917.7,1114.8,919.1z M1181.9,919.2c-0.3,0.6-1,1.4-1,2.2c0,1,0.9,2,2.2,1.5c0.8-0.3,1.4-1.4,1.4-2.2
		C1184.6,919.7,1183.8,918.9,1181.9,919.2z M1117.2,928.5c0.4,0.5,0.7,1.6,1.5,1.9c1.4,0.5,2.3-0.5,2.2-1.4c0-0.8-0.6-1.9-1.3-2.2
		C1118.3,926.2,1117.6,927.2,1117.2,928.5z"/>
	<path class="st0" d="M890.9-42.2c39.2,0,78.5,0,117.7,0c0,2.5,0,5.1,0,7.6c-2.3-0.1-4.7,0-7-0.3c-11.2-1.6-14.1,0.9-11.4,12.4
		c2.2-7.3,4.5-12.3,14.1-7.6c4.4,2.1,3.9-2.3,4.3-4.5c6-0.3,7.3-3.5,7.1-7.6c116.1,0,232.2,0,348.3,0c-0.3,10.3,9.3,12.7,18.8,15.2
		c1,5,8.8,5.2,10.7,9c3.9,7.8,10,7.2,17.5,4.3c0.9,0.7,1.7,1.4,2.6,2.2c0.5,4.8,5.9,7.7,9.4,6.4c11.2-4.2,10.4,3.9,14.3,7.5
		c6.7,6.1,9.9,14.7,20.5,17.9c2.1,3.2,5.5,4.4,9.9,4c6.3,8.2,17,12.5,26.1,18.1c25.4,15.6,53.3,28.8,72.1,50.5
		c13.8,15.9,29.6,26.2,54.9,15c3.4-1.5,7.4-0.5,10.1,2.7c11.8,14.5,30,20.2,50,23.6c5.6,0.9,10.4,2.9,10.3,8.6
		c-0.1,5,3.8,6.5,9.3,6.2c5.9,5.5,10.1,12.8,21.9,11.7c4.3-0.4,4.5,2.6,1.9,5.3c-4.1,4.1-1.3,6.7,3.6,5.3c14.4-4,18.6,4.6,25.6,11.2
		c6.6,6.3,10.3,13.5,14.4,20.9c2.7,4.8,6.6,9.6,15.1,8.1c10,14.2,23.7,26.3,34.3,40.1c11.2,14.7,28.5,25.6,38.3,41
		c0.1,0.8,0.2,1.6,0.3,2.4c-2.7,4.9,2.4,3.1,4.8,3.6c1.4,8,10.6,13.7,10.1,22.5c-0.2,2.8,3.4,3.9,6.8,4c2.8,0.1,4.7,0.7,6.7,2.8
		c10.7,10.8,19.6,23.2,35.4,30.1c-0.2,1.9-0.4,3.8,2.1,5c0,0.7,0.1,1.4,0.1,2.1c0.1,2.3,1.5,3.6,4.5,3.6c0.8,1.3,1.7,2.6,2.5,3.9
		c0.3,4.7,6,3,8.7,4.7c1.7,1.1,3.9,2.6,4.2,4.2c0.4,2.6-3,2.1-5,2.6c-1.8,0.5-3.6,1.1-5.4,1.7c-1.6,0-3.2-0.1-4.8-0.1
		c0-0.6,0-1.2,0-1.8c0-2.8-2.4-4.5-4.4-6.4c-7.8-7.7-19.2-10.7-29.8-14.7c-9-3.4-15.1-8.2-19.4-15.5c-6.5-11.1-10.9-23.9-28.1-28.5
		c-2.6-0.7-4.9-3.2-6.5-5.4c-8.8-12.3-22.1-21.1-35.5-29.8c-15.4-10-34.7-15.3-53.3-14.2c-26.2,1.5-52.3,6.7-77.3,14.3
		c-28.8,8.8-58.2,6.8-87.7,2.5c-35.2-5.2-69.1-14.8-105.4-16.7c-19-1-37.3,2.2-55.9,0.8c-7.2-0.5-13.9,1.2-20.5,3.4
		c-41.1,13.7-82.1,27.6-123.4,40.8c-10.3,3.3-20.7,9.5-32.4,6.5c-21.5-5.5-44.2-7.7-65-15.1c-33.4-11.9-68.3-21-98.1-39.1
		c-10-6-16.3-12.9-21.1-21.7c-13.2-24.2-25-48.9-38-73.1c-7-12.9-13.6-24.4-12.1-39.6c2.2-23.4-10.3-44.9-25.2-64.5
		c-24.5-32.2-52-62.8-85.8-89.2C893.8-27.2,890.2-33.9,890.9-42.2z M1344.5,80c4.8-5.7,3.2-29-0.3-33.8
		C1335.5,57.1,1348.4,67.1,1344.5,80z M979.2,17.4c-5.8-7-1.7-12.1,5.2-16.6C968.4,4.9,967.8,6.5,979.2,17.4z M1332.5,4.4
		c1-0.4,2-0.8,3.1-1.2c-3.7-6.1-7.3-12.2-11-18.3C1323.2-7,1328.1-1.4,1332.5,4.4z M1047.5,66.7c8.6,7.7,8.6,7.7,18,6.4
		C1059.5,71,1055,69.4,1047.5,66.7z M991.1-17c-3.3,4.4-8.1,6.9-6.6,14.4C988-8.3,993.4-10.4,991.1-17z M1334.8-36.2
		c-2,4.3-0.2,6.5,4.5,8.9C1339.3-31.3,1338.8-34,1334.8-36.2z M1333.2-25.1c-1.5,1.1-2.8,1.7-3.4,2.6c-0.7,1.2-0.3,2.6,1.8,2.2
		c1.2-0.2,2.3-1.3,3.1-2.2C1334.9-22.8,1333.9-23.8,1333.2-25.1z M1333.7,11.7c0.4,0.5,0.7,1.6,1.5,1.9c1.4,0.5,2.3-0.5,2.2-1.4
		c0-0.8-0.6-1.9-1.3-2.2C1334.8,9.5,1334.1,10.4,1333.7,11.7z M1340,23.1c-0.4-0.5-0.7-1.6-1.5-1.9c-1.4-0.5-2.3,0.5-2.2,1.4
		c0,0.8,0.6,1.9,1.3,2.2C1338.9,25.4,1339.6,24.5,1340,23.1z M1340.2,37.1c1-1.1,2-1.7,2-2.4s-1-1.4-1.6-2.1c-0.7,0.6-1.9,1.1-2,1.7
		C1338.5,35,1339.4,35.8,1340.2,37.1z M1045.2,65.2c-0.6-0.2-1.3-0.4-1.9-0.7c-0.3,0.5-0.9,1.1-0.7,1.5c0.2,0.4,1.2,0.5,1.8,0.7
		C1044.6,66.3,1044.9,65.8,1045.2,65.2z M1028.3,58.7c0.6,0.2,1.4,0.7,1.9,0.6c0.5-0.1,0.9-1,0.8-1.4c-0.2-0.4-1.3-0.8-1.7-0.6
		C1028.7,57.4,1028.6,58.2,1028.3,58.7z M1038.1,61.5c-0.6-0.2-1.3-0.4-1.9-0.7c-0.3,0.5-0.9,1.1-0.7,1.5c0.2,0.4,1.2,0.5,1.8,0.7
		C1037.6,62.5,1037.8,62,1038.1,61.5z"/>
	<path class="st0" d="M1396.9-42.2c162.4,0,324.8,0,487.2,0c5.4,6.8,5.9,14.9,6.5,22.3c0.7,9.2,4.8,18.2-0.8,28.3
		c-4.1,7.4-2.9,17.8,6,25.1c0,1.3-0.1,2.6-0.1,3.9c-2.9,5.3-1.4,9.6,4.3,13c1.7,5,11.6,9.9-0.5,15c-2.7,1.1-1.7,5,2.4,5.7
		c7.1,1.2,7.2,5.5,8.2,10c2.5,11.1,2.8,23.1,17,30.1c2.1,1,3.9,3.6,3,5.8c-3.5,9.2,0.8,17.1,5.9,24.9c3.2,3.8,9.5,4.7,11.3,10.2
		c3.2,9.7,7.9,19,12.2,28.5c20,44.6,40.3,89.1,60,133.7c10.7,24.3,26.1,48.3,12.8,75.3c-2.4,0-4.7,0-7.1,0c-1.5-1.8-3-1.9-4.6-0.1
		c-1.6,0-3.2,0-4.8,0c-4.9-3.4-8.6-2-11.7,1.8c-1.6,0-3.1,0.1-4.7,0.1c-6.1-7-13.7-3.7-21.1-2c-2.4,0.7-4.9,1.4-7.3,2
		c-2.3,0-4.5,0-6.8,0c-0.8-0.6-1.6-1.3-2.5-1.9c-0.3-6.2-7.1-9.5-10.3-14.4c-1.4-2.1-5.1-4.1-3-6.6c7.1-8.8-1.6-8.3-8-9.3
		c-6.5-2.3-2.9-10.9-7.9-11.5c-10.2-1.2-11.9-7.9-15.8-12.8c-11.7-14.6-30.8-25.2-36.3-43.3c-0.6-1.9-3.4-2.4-5.8-2.6
		c0.1-2.7,0.1-5.4-4.6-5.6c-2.4,0.6-4.8,1.3-7.1,1.9c-0.7-1.4-0.9-3.3-2.1-4.3c-17.1-13.8-31.2-29.7-44.4-45.9
		c-8.1-9.9-21.9-17.6-21.8-31.3c-3-3.1-9.3-4.2-9.3-9.1c0-5.5-3.5-8-9.5-10.4s-14.3-10.3-14.2-11c2.3-13.7-9.9-16.1-21.3-18.3
		c-11.9-2.2-19.7-6.8-24.1-16.4c-1.4-3-5.5-8.8-13.3-6.9c-9.1-0.4-15.4-6.5-24.6-7.6c-15.5-1.8-28.4-7.9-37.8-18.5
		c-5-5.6-10.6-10.2-20.6-6.5c-4.1,1.5-9.3,1.2-13.6,2.6c-8.1,2.7-13.7,0.9-19.9-3.8c-9.4-7.3-15.8-16.4-24.6-24
		C1542,57,1517,45.6,1494.5,31.7c-6.7-4.1-15-7.3-15.3-15.5c-1.7-3.6-8.6,0.9-9.4-3.9c-0.4-4.8,2.2-12.5-4.7-13.2
		c-11.8-1.2-15-9.7-23.2-13.8c-5.5-2.7-10.2-5.3-16.7-5.3c-6.2-9-15.6-13.9-28.2-15c-0.9-0.7-1.7-1.4-2.6-2.2
		C1395.3-38.6,1396.1-40.4,1396.9-42.2z"/>
	<path class="st1" d="M128.3,342.3c15.8-3.7,32.2-7.5,48.1-6.8c22.1,1,39.4,10.9,48.4,28.4c3.9,7.7,8,15.6,12.5,22.8
		c7.3,11.5,20.7,19.1,37.5,21.7c20.7,3.2,37.3,12.7,51.5,24.5c17.9,14.9,33.2,31.7,53.5,44.8c11.1,7.2,20,15.7,10.1,28.2
		c-0.6,0.7-0.4,1.9-0.3,2.8c4.3,25.5-12.2,47-21.6,69.7c-2.5,6.1-8.9,10.9-14.6,15.7c-3.2,2.7-5.8,5.9-8.7,8.9
		c-2.9,3-1.1,5.6,1.8,7.3c2.9,1.8,5.5,0.6,8.1-1.4c8.1-6.1,14.7-5.7,20.4,2c13.6,18.3,16.7,37.9,11.3,58.8
		c-4.1,15.7-5.4,31.2,12.7,43c9.9,6.5,17.5,6.2,25.5-1.5c15.5-15,37-18.3,59.2-18c11.5,0.1,12.1,10.2,13.5,16.6
		c1.2,5.9,3.2,10.6,7.6,15.2c21.2,21.6,15.2,44.1,3.2,66.8c-7.3,13.8-6.7,13.4,8.1,23.2c19.9,13.2,40,26.2,61.6,37.5
		c26.5,14,53.9,20.9,84.4,6.5c11.7-5.5,25-9,37.7-12.9c14.1-4.3,25.4-11.6,28.3-23.4c5-21,42.1-33.6,65-30.1
		c9.9,1.5,19.6,2.2,29.1,5.8c22.3,8.5,34.5,22.7,43.8,40.6c9,17.4,8.5,34.9,8.3,52.8c-0.1,8.7-8.1,14.9-12.9,21.9
		c-13.7,19.9-25.9,40.2-36.1,61.4c-1.7,3.6-2.5,6.7,1.8,10.2c22.1,18.2,41.8,38.2,62.7,57.2c19.8,18,46.6,26.9,76.6,29.1
		c7,0.5,13.9,1.3,20.9,1.9c25.7,2.2,48.3-4.6,70.1-14.8c14.2-6.7,28.3-14.1,43.7-18.2c28.5-7.6,58.1-10.2,86.4,1
		c22.5,8.8,45.2,17.7,66,28.7c24.1,12.8,29.9,22.3,22.3,47.6c-3.8,12.7-13.6,22.2-20.1,33.4c-22.8,0-45.5,0-68.3,0
		c5.2-9.2,15.5-15.5,21.8-24.1c1.2-1.6,3-2.9,4.1-4.6c11.3-16.5-0.4-31.7-23.8-34.1c-19.2-2-30.8,7.2-43,15.5
		c-21.4,14.6-44.9,20.9-72.5,15c-10.7-2.3-19.9-7.3-29.7-11.2c-6.5-2.6-12.8-4.3-20.2-3.9c-27.8,1.2-56,0.9-82.7-4.4
		c-22-4.4-45.1-9.3-60.9-25.3c-14.6-14.8-33.7-26.3-52.2-37.8c-25.9-16.1-36.1-37.8-38.7-62.9c-0.7-6.5,3.9-11.4,6.7-16.9
		c7.9-15.4,15.5-31,28.2-44.4c5.7-6,8.1-12.6,7.7-20.3c-0.6-11.4,2.7-22.6-3-34.2c-4.7-9.6-13-13.2-23.1-16.9
		c-15.7-5.7-26.7-0.5-39.3,7.4c-40.2,25.1-85.2,43.2-134.3,54.4c-5.3,1.2-10.6,0.3-16.1-0.9c-30.8-7-55.8-22-80.7-37.2
		c-19.3-11.8-38.7-23.4-58.2-34.9c-22.9-13.3-49.1-19-76.9-19.2c-23.6-0.1-46.6-0.8-69.3-7.1c-19.4-5.4-34.5-15.8-50.4-25.2
		c-24.7-14.6-30.2-35.5-24.2-58.4c6-23,18.5-44.8,20.8-68.4c2.6-27.5,25.2-48.4,35.2-73.4c6.8-17,24.3-28.3,34.3-43.6
		c11.6-17.7,11.8-35.6-0.6-52.8c-17.9-24.7-43.9-40.1-79.9-44.7C247,434.4,227,432.1,211,421c-4.3-3-8.2-5.8-9.2-10.4
		c-2.6-11.7-5.3-23.4-7.5-35.2c-2.3-12.7-20-21.8-35.3-17.7c-10,2.6-19.6,6.5-30.6,5.4C128.3,356.2,128.3,349.2,128.3,342.3z
		 M512,753c1.1-3.6-0.4-8.6-3.7-12.3c-8-8.8-12.6-18.8-18.2-28.5c-4-6.8-8.7-13.4-18.9-13.6c-11.2-0.2-17,6.6-22,13.7
		c-2.1,3-2.8,6.8-7.2,8.3c-18,6.3-44.9,6.5-56.2-11.6c-3.3-5.4-6.3-10.9-10.2-16c-4.8-6.4-5.7-12.8-2-19.7
		c6.4-12.2,8.2-24.8,4.2-37.7c-1.5-4.8-1.8-11.4-7.5-13.3c-11.3-3.8-23.6-5.8-35.5-8.5c-0.5-0.1-1.6,0.4-2,0.9
		c-6.6,8.3-18.3,13.6-20.9,24.4c-6,24.9-11.4,50-19.6,74.5c-5.5,16.4-4.6,29.6,9.5,43.2c13.9,13.3,30.7,22.8,50.8,26.2
		c21.2,3.6,43.4,3.2,65.1,4.5c23.7,1.5,47.4,2.4,68.4,13.2c6.6,3.4,11.6,2.1,11.6-4.9c0-6.9,3.3-12.8,6.6-18.9
		C508.3,769.7,512.3,762.4,512,753z"/>
	<path class="st1" d="M1926.4,385.8c1.6,0,3.2,0.1,4.8,0.1c-1.1,3.6,7.3,5.6,2.3,9.9c-3.1,2.6-4.7,6.9-3,9.3
		c2.5,3.5,8.4,1.5,12.9,1.5c3,0,6-1.1,9-1.7c2.1,7.4,10.2,10.8,16,15.6c19,15.8,19.3,15.7-2,29.9c-5.8,3.8-6.1,6.8-0.1,10.3
		c2.5,1.5,4.8,3.2,7.2,4.8l0.2,0.1c-0.8,2.5-1.6,5-2.4,7.5l0,0c-4.8,1-9-1-13.4-2.5c-0.9,5,7.6,3.8,6.5,8.1c-1.6,0-3.2,0-4.9,0.1
		c-3.7-2.9-5.9-1.8-7.1,1.8c-6.5-1.1-11.7-3.1-11.7-9.4c3.2-1.4,6.4-2.8,9.7-4.2c9.2-1.8,9.7-2.6,6.6-10c-2.3,1.6-4.5,3.2-6.8,4.8
		c-20.3-19.8-45.6-35.2-69.1-52.3c-15.2-11-26.7-24.4-39.2-37.1c-16.7-16.9-34.6-32.5-60.1-40.9c-14.7-4.8-29.5-6.7-45.5-4.6
		c-26.9,3.5-52.2,10.7-76.6,20.1c-7.2,2.8-13.7,2.4-21.4,1.7c-22.1-1.9-42.1-7.1-61.7-15.9c-31.5-14-65-24.7-99.9-32.4
		c-5.6-1.2-10.5-1.5-15.9,0.1c-53.4,15.4-106.8,30.7-160.3,45.8c-13.4,3.8-27.8,1.8-41.7,3.6c-10.7,1.4-21.9,1.3-32.6,1.5
		c-35.5,0.8-70.8,4.3-106.2,6.3c-15,0.9-29.5-2.8-44.4-2c-3.4,0.2-6.4-0.9-8.1-3.1c-8.3-11-19.5-20.5-24.8-33
		c-13.3-31.6-25.7-63.4-36.5-95.6c-3.7-11.1-13-19.9-18.9-30.1c-4.9-8.5-11.2-16.5-17.8-24.2c-3.8-4.4-0.7-8.5-1.6-12.7
		c-3.2-14.2-18.3-20.5-29.5-29c-8.3-6.3-19-10.8-30.3-13.7c-3.7-0.9-6.4-3.2-4.4-6.5s5.3-1.3,8.1-0.4c15.3,5.2,27.4,14.4,40.7,22.1
		c1.6,0.9,2.8,2.3,6.7,1.6c-4.6-9.6-7.4-19.9-13.8-28.4c-18.5-24.7-38.3-48.8-57.8-73.1c-9.9-12.4-25.7-20.1-38.8-29.9
		C832.5-12.5,815.1-23.8,800-37c-1.5-1.3-1.9-3.3-2.9-5c31.4,0,62.8,0,94.1,0c-0.7,8.4,2.9,15,10.6,21c33.8,26.4,61.3,57,85.8,89.2
		c14.9,19.6,27.4,41.1,25.2,64.5c-1.5,15.2,5.2,26.7,12.1,39.6c13,24.2,24.8,48.9,38,73.1c4.8,8.8,11.2,15.7,21.1,21.7
		c29.8,18,64.7,27.2,98.1,39.1c20.9,7.4,43.5,9.5,65,15.1c11.6,3,22.1-3.2,32.4-6.5c41.3-13.2,82.3-27.1,123.4-40.8
		c6.6-2.2,13.2-3.9,20.5-3.4c18.6,1.4,37-1.8,55.9-0.8c36.3,1.9,70.2,11.5,105.4,16.7c29.5,4.3,58.9,6.3,87.7-2.5
		c25-7.6,51-12.8,77.3-14.3c18.6-1.1,37.9,4.3,53.3,14.2c13.4,8.6,26.6,17.5,35.5,29.8c1.5,2.1,3.8,4.7,6.5,5.4
		c17.2,4.6,21.6,17.3,28.1,28.5c4.3,7.3,10.3,12.1,19.4,15.5c10.5,3.9,22,7,29.8,14.7c2,2,4.4,3.6,4.4,6.4c-9.6,6-3.5,12.8-3.5,19.3
		c1.2,0,2.3,0.1,3.5,0.1C1926.4,397.5,1926.4,391.6,1926.4,385.8z"/>
	<path class="st0" d="M1959.3,478.7c1.6,0,3.2,0,4.9-0.1c1.5,0,3,0,4.6,0c12.3,12.3,26.7,23.3,32.7,39.3
		c11.7,31.5,26.8,62.1,36.4,94.1c1.1,3.7,1.5,8.5,8.6,8.7c0,66.9,0,133.9,0,200.8c-4.3-0.3-10.2,1.4-7.7-5.6
		c1.3-3.7-1.7-6.1-6.9-4.5c-3.4,1-6.1-0.2-8.9-1.2c0.2-4.4-5.3-6.1-7.1-9.6c-3.7-6.2-11.5,0-16.1-3.5c-0.9-1.3-1.8-2.6-2.7-3.9
		c-1-3.4,2.7-8.2-4.7-9.5c-0.8,0-1.6,0-2.3,0c-5.3-0.7-3.1-7.4-9.2-7.5c-8.2-0.5-15.9-2.6-20.5-8.1c-7.5-9-19.8-13.7-28.2-21.9
		c-3.4-3.3-5.8-5.9-5.9-10.4c-0.2-10.4-6-13.6-18.8-11.3c-0.3-2.2,0.3-4.8-1-6.4c-18.8-23.2-27.1-50.9-48.9-72.8
		c-2.3-2.3-3.3-5.8-3.8-8.8c-1.8-10.5-3.8-21.1-4.5-31.7c-0.3-5.1,1.1-10.5,5.9-14.8c4.8-4.4,10.3-8.5,12.4-14.5
		c15.3,0.9,16.1-12.4,25.6-17.3c4.7-2.4,8.6-7.1,7.6-13c-0.5-2.7,1.5-4.6,5-5.6c10-2.7,13.1-9.6,14.9-17c0.3-1.1-1-2.7,0.7-3.4
		c11.5-4.6,12.1-16.2,22-22c2.4-1.4,4.4-4.4,1.9-7.4c0.5-3.3,2.8-5.1,6.9-5.4c2.2,0.2,4-0.1,5.1-1.8
		C1958.9,481.6,1959.3,480.3,1959.3,478.7z"/>
	<path class="st0" d="M1898.2-42.2c48.6,0,97.3,0,145.9,0c0.8,0.6,1.6,1.3,2.4,1.9c0,75.1,0,150.3,0,225.4c-5.2,0.8-10,2.2-13.8,6.6
		c5.5-0.4,9.7-0.6,13.8-0.9c0,49.2,0,98.5,0,147.7c-5.4,0.5-7.6-2.2-9.2-5.7c-17.2-38.4-34.3-76.8-51.7-115.1
		c-2.4-5.2-0.9-7.1,5.4-9.6c11.1-4.4,23.9-6.4,32.8-14.2c-11.7,3.2-23.1,7-34,11.4c-5.7,2.3-9,2.4-11.3-3.1
		c-7.9-18.7-16.1-37.4-24.5-56c-1.4-3.2,0.8-5.5,0.7-8.2l0.4-0.3c1.5-0.1,3.4-0.3,3.3-1.9c-0.1-1.5-1.9-1.6-3.4-1.8
		c-0.9,0-1.7-0.1-2.6-0.1c-1.6-1.2-3.1-2.5-4.7-3.7c-1-6.1,0.9-12.3-7-17.6c-3.5-2.4-9.6-8.4-5.9-15.9c1.3-2.6,5.5-11.4-1.7-13.3
		c-11.4-3.2-9.9-9.1-9-15.8c0.3-2.4,0.6-5.1-2-7.1c-6-4.6-5.3-9.2-0.6-14.2c4.8-5-0.5-4.8-4.4-5.3c-0.3-2.9,1.6-6.5-4.3-7.2
		l-0.4-0.4c0.6-3-0.8-6.1,2.1-8.9c4-3.9,2.4-18.6-3-19.9c-11.1-2.7-9.1-10.4-10.4-16C1898.7-21.6,1897.1-31.9,1898.2-42.2z"/>
	<path class="st2" d="M1549.9,1151.1c-6.4-12.4-22.1-17.2-32.6-26.3c-15.3-13.3-38.4-21.2-46.5-39.1c-11.1-24.8-19.6-50.4-28.9-75.7
		c-1.6-4.4,0.8-8.6,3.4-12.6c8.4-13.2,14.7-26.9,18.4-41.6c3.1-12.2-1.1-23-5.4-34c-2.1-5.4-7.9-5.2-13.4-5.5
		c-20.1-1.1-39.9,1.1-59.2,4.8c-32.6,6.2-63.7,7.3-94.1-7.1c-22.3-10.6-48.4-11.3-73.3-14.7c-5.8-0.8-12.3-0.4-17.1-2.6
		c-10.8-4.8-12.6,0.1-13.9,6.8c-0.2,0.8-1,1.5-3.6,5.3c3.8-19.6-13.2-23-26.1-29.1c-9-4.3-16.3-11-26.6-13.4c-4-0.9-9.2-5.6-12.7,1
		c-0.2,0.3-2.7,0.2-2.8,0c-3.6-10.6-14.2-5-21.6-5.7c-10.1-0.9-20.4-0.4-30.6-0.2c-8.1,0.2-20.5-3.2-10.9,13.1
		c-8-5.1-5.6-11.8-11.8-12.7c-5.3-0.8-10.9-0.2-16.4-0.5c-40.2-2.4-76.4-14.1-106.5-34.9c-23.3-16.2-50.6-22.6-78.6-29.6
		c-53.3-13.3-107.9-23.1-160.2-39.3c-21.2-6.5-32.9-20.8-46.2-33.7c-17-16.4-32.7-33.6-49.3-50.2c-17-17-21.6-36.2-15-56.8
		c2.8-8.9,0-12.6-10-16.4c-17.6-6.7-30.9-18.1-39.7-32c-5.1-7.9,0.4-16.6,2.9-24.6c1.4-4.5,4.1-9,7.5-12.8c6.1-7,4.5-13.4,0.4-20.4
		c-14.6-24.8-28.5-50-43.8-74.5c-5.3-8.6-13.8-15.8-20.9-23.7c-1.4-1.5-3.3-3-3.9-4.7c-10.5-29.2-44.2-40.3-69.4-58
		c-15.5-10.9-25.5-25.1-34.9-39.5c-0.3-0.5-0.1-1.3-0.4-1.9c-3.7-7.5-46.3-30.3-56.8-30.4c-17.7-0.1-18-0.1-18-14.4
		c0-5.2-1.2-8.6-8.4-9c-1.5-0.1-3-0.8-4.5-1.1c-24.5-4.9-26.1-6.4-17.7-25.5c6.5-14.9,8.9-26.8-10.7-38.1
		c-16.9-9.7-29.6-24.1-44.1-36.5c-6.5-5.5-10-12.1-8.8-19.8c1-6.2-1.8-9.7-9.7-10.1c-16.7-0.7-31.9-8.8-49.3-6.6c0-5.7,0-11.4,0-17
		c13.5,13,33.7,11.6,51.4,14.8c16.6,3,18,3.3,17.1,17.1c-0.9,12.3,11.9,18.5,19.9,26.7c12.9,13.1,28,24.5,43.7,35.4
		c8,5.6,10.5,11.8,6.9,20.1c-3.1,7.1-4.5,14.6-7.5,21.8c-2.1,5.1,0.4,6.9,5.9,8c4.2,0.8,8.2,2.2,12.5,2.6c10.5,1,13.8,6,12.7,13.8
		c-0.9,5.8,1.4,8.7,9.6,8.5c17.2-0.4,28.1,9.8,40.7,16.9c6.7,3.8,13,8,19.4,12.1c3.4,2.1,6.8,4.2,7.8,7.9
		c4.2,15,16.3,26.4,29.5,36.3c15.1,11.3,31.6,21.5,49.3,30.1c5.1,2.5,9.6,5.3,11.2,10.3c5.3,16.6,19.5,29.3,31.2,42.9
		c3.8,4.4,7.7,8.6,9.6,13.8c3.2,8.9,9,16.7,15.8,24.1c7.3,8,11.8,16.9,13.6,26.8c1.2,6.9,6.5,12.1,11.2,17.5
		c6.9,7.8,6.9,15.7,1.9,24c-4.7,7.9-11.2,15.1-12.6,24.1c-0.8,4.9-1.4,9.9,2.9,13.5c12.9,10.8,24.1,23.6,43,28.5
		c8.8,2.3,12.1,9.8,21.6,12.4c-14.5-5.6-15.8,2.4-18.5,9.4c-6.6,17.7,0,33.1,13,46.9c21.7,23,44.1,45.5,66.1,68.4
		c8.3,8.6,19.6,13.1,31.9,16.8c36,10.7,73.3,17.6,109.9,26.6c28.8,7,57.6,13.9,86.4,21c17.1,4.2,28.9,14.7,42.1,23.5
		c15.7,10.4,34.9,15,52.6,22c21.6,8.5,45.2,9.1,68.6,9.4c11,0.1,22.1,0.8,32.9-0.1c32.8-2.7,61.4,4.2,87.7,20.3
		c15.2,9.3,33.2,14.9,52.6,17.5c9.9,1.3,12.5-4.2,17.9-9.1c-3.8,8.4-0.8,12.3,9.6,12.5c23.5,0.3,43,10.5,64,17.2
		c6.5,2.1,13,6.7,20.6,1.5c0.5-0.3,1.7-0.6,2.2-0.3c18.8,9.6,36.5-0.9,54.7-2.1c21.6-1.4,42.8-7.2,64.9-2.5c7.7,1.6,12,4.8,14.1,11
		c9.8,27.9,4.7,54.1-13.4,78.9c-3.8,5.3-4,10.7-1.9,16.4c8.1,21.4,16,42.8,24.3,64.1c5,12.8,18.9,19.7,30.3,28.2
		c15.1,11.3,31.2,21.9,46.8,32.8c4.2,3,7.4,6.5,8.1,11.2C1559.3,1151.1,1554.6,1151.1,1549.9,1151.1z"/>
	<path class="st2" d="M1954.6,137.9c0.1,2.7-2.2,5-0.7,8.2c8.5,18.6,16.6,37.2,24.5,56c2.3,5.5,5.6,5.4,11.3,3.1
		c11-4.4,22.3-8.2,34-11.4c-8.9,7.8-21.8,9.7-32.8,14.2c-6.3,2.5-7.7,4.4-5.4,9.6c17.4,38.3,34.6,76.7,51.7,115.1
		c1.6,3.6,3.8,6.3,9.2,5.7c0,35.4,0,70.7,0,106.1c-4.7,0.1-8.8-0.7-9.3-5.2c-0.4-4.3-5.1-5.5-8.2-5.2c-10.5,1.2-22,0.6-29.6,8.5
		c-9.4,7-20.3,12.9-26,22.7c-2.4-1.6-4.7-3.3-7.2-4.8c-5.9-3.5-5.7-6.5,0.1-10.3c21.3-14.1,21-14.1,2-29.9c-5.8-4.8-14-8.2-16-15.6
		l0,0c15.3,2.2,11.7-6.6,11.9-13.2c2.3,0,4.5,0,6.8,0c-2.8,4.5-0.8,9.1,0.4,13.5c1.2,4.8,4.8,4.8,8.9,1.9l0.2-0.2
		c7.7-6.7,7-12.2-2.2-17.2c7.4-1.7,15-5,21.1,2c-0.5,2.8,1.1,6.1-1.7,8.6c-5-1.5-0.5-6.6-7.1-7.9c-0.5,4.1-2.2,7.8,1.8,11.2
		c2.4,2,5.9,2,8.8,0.9c5.2-2,2.5-6,3.1-9.2c0.2-1.2-0.1-2.5-0.2-3.8c3.2-3.8,6.9-5.2,11.7-1.8c0.1,4.9,6.6,7.5,5.9,12.7
		c5.8-1.4,1.3-6.5,5.9-7.6c4.8,1.9-0.8,7.6,5.6,9.2c2.6-5,2-9.6-1-14.2c13.2-27-2.1-51-12.8-75.3c-19.7-44.7-40-89.2-60-133.7
		c-4.2-9.4-9-18.8-12.2-28.5c-1.8-5.5-8.1-6.4-11.3-10.2C1942.2,140.6,1948.4,139.3,1954.6,137.9z"/>
	<path class="st1" d="M1973.4,465.3c5.7-9.8,16.5-15.7,26-22.7c3.1,5.1,9.3,7.5,14.7,10.5c9.9,5.4,17.6,11.7,20.6,21.6
		c1.9,6.2,2.1,14,11.8,17.2c0,42.9,0,85.9,0,128.8c-7.1-0.2-7.5-5-8.6-8.7c-9.6-32-24.7-62.6-36.4-94.1c-6-16-20.3-27-32.7-39.3
		c0.8-1.9,1.6-3.8,2.4-5.7l0,0c5.4-1.5,8.3-3.6,2.4-7.5L1973.4,465.3z"/>
	<path class="st1" d="M276.6,3.3c9.3,5.1,17.6,11.1,27.9,15.2c15.7,6.3,29.7,2.9,43.3-3.4c10.8-4.9,18.9-0.5,26.8,4
		c7.8,4.5,14.2,9.9,11.1,19c-1.9,5.6,0.2,11.4,5.7,14.5C420.6,69.5,449,87.9,484.6,95c17.5,3.5,35.8,1.9,53-3.7
		c4.1-1.3,7.5-3.5,10.1-6.3c10-11.2,28.4-14.9,40.7-4.9c17.3,14.2,39.6,18.3,61,24.7c6.2,1.9,11.8,3.6,10.1,11.9
		c-16.6-12.3-38.4-13-56.5-20.8c-7.7-3.3-14.6-8.1-21.4-12.6c-7.3-4.9-13.7-4.6-20.7,0.4c-5.8,4.2-13,7.2-18.2,11.7
		c-11.6,10.1-26,9-40.4,7.7C467,99.9,437,86.8,409.6,69.5c-7.4-4.7-14.8-9.3-22.2-13.8c-10.5-6.4-15.3-14.6-12.5-25.3
		c1.9-7-4-9.1-10.5-9.9c-8.7-1.1-17.3-0.2-25.2,3c-14.8,6-28.6,4.2-42.2-2.5c-5-2.5-10.5-4.3-15.7-6.4c-8.6-7.6-19.2-12.7-30.6-17
		c-4.6-3.3-10.7-4.7-16.1-5.1c-19.3-1.2-33-10.2-46.5-19.8c-6.1-4.3-13.3-6.5-20.7-8.5c-4.2-1.1-8.5-1.8-8.6-6.4
		c7.1,0,14.1,0,21.2,0c-0.2,2.7,0.7,4.7,3.8,6.4c23.7,12.3,47.9,23.7,76.3,27.7C265.6-4.3,271.1-0.5,276.6,3.3z"/>
	<path class="st0" d="M2046.4,491.9c-9.7-3.1-9.9-10.9-11.8-17.2c-3-10-10.7-16.3-20.6-21.6c-5.4-2.9-11.6-5.3-14.7-10.5
		c7.6-7.9,19.1-7.3,29.6-8.5c3.2-0.3,7.8,0.8,8.2,5.2c0.4,4.5,4.6,5.3,9.3,5.2C2046.4,460.4,2046.4,476.2,2046.4,491.9z"/>
	<path class="st2" d="M2018.2,1151.1c7-21.5,13.9-43,20.9-64.4c1.1-3.3,1.8-7,7.3-7.5c0,22.4-0.2,44.8,0.2,67.2
		c0.1,4.1-0.9,5.2-6,4.9C2033.1,1150.8,2025.7,1151.1,2018.2,1151.1z"/>
	<path class="st2" d="M1898.2-42.2c-1.1,10.3,0.6,20.6,2.8,30.7c1.3,5.7-0.7,13.3,10.4,16c5.4,1.3,7,16,3,19.9
		c-2.9,2.8-1.5,6-2.1,8.9c-5.5-0.6-11-3.4-16.4,0.2c-9-7.3-10.1-17.7-6-25.1c5.5-10.1,1.5-19.1,0.8-28.3c-0.6-7.5-1.1-15.5-6.5-22.3
		C1888.8-42.2,1893.5-42.2,1898.2-42.2z M1901.1,15.8c0.3-0.5,0.9-1.1,0.7-1.5c-0.2-0.4-1.2-0.5-1.8-0.7c-0.3,0.5-0.9,1.1-0.7,1.5
		C1899.5,15.4,1900.5,15.6,1901.1,15.8z"/>
	<path class="st2" d="M2022.9,810.1c2.8,1.1,5.5,2.3,8.9,1.2c5.3-1.6,8.2,0.8,6.9,4.5c-2.4,7,3.4,5.3,7.7,5.6c0,5.1,0,10.1,0,15.2
		c-8.9-1.9-15.3-9.7-26.5-6.4c-2.2,0.7-3.9-2.6-4.1-5c4.9-0.1,10.2,1,14.1-2.9c1.6-1.6,2.4-3.2,0.6-5c-1.8-1.9-3.8-3.2-6.9-2
		c-1.9,0.8-6.5,0.9-5.7,1.5c5.8,4.2-3.1,5.4-2.1,8.3c-4.5-0.2-4.8-2.6-4.6-5.4C2014,815.8,2017.8,812.5,2022.9,810.1z"/>
	<path class="st2" d="M1396.9-42.2c-0.8,1.8-1.6,3.6-2.4,5.5c-11.5-2.7-8.9,5.7-11.7,9.7l0,0c-9.5-2.5-19.1-4.8-18.8-15.2
		C1374.9-42.2,1385.9-42.2,1396.9-42.2z"/>
	<path class="st2" d="M2046.4,910.6c-11.5-10.3-29.2-14.8-38.9-27.1c13.9,3.7,21.7,17.5,38.9,15.7
		C2046.4,903,2046.4,906.8,2046.4,910.6z"/>
	<path class="st2" d="M243.7-42.2c-0.9,6.9-10,12.3-5.8,20.4c0.9,1.8-2.2,2.3-4.1,1.8c-2.9-0.8-4.3-2.6-2.9-5.2
		c3-5.4,6.3-10.8,5.8-17C239-42.2,241.3-42.2,243.7-42.2z"/>
	<path class="st2" d="M2046.4,190.8c-4.2,0.3-8.3,0.6-13.8,0.9c3.9-4.4,8.6-5.8,13.8-6.6C2046.4,187,2046.4,188.9,2046.4,190.8z"/>
	<path class="st2" d="M1008.5-34.6c0-2.5,0-5.1,0-7.6c2.4,0,4.7,0,7.1,0C1015.8-38.2,1014.6-34.9,1008.5-34.6L1008.5-34.6z"/>
	<path class="st2" d="M681.4-42.2c-0.5,1.7,1.1,4.8-2.9,4.5c-2.4-0.2-1.6-2.8-1.8-4.5C678.3-42.2,679.8-42.2,681.4-42.2z"/>
	<path class="st2" d="M128.3,82.8c2.4,0,4.7,0,7.1,0l0,0c-1.3,2.5-3.7,3.8-7.1,3.8C128.3,85.3,128.3,84.1,128.3,82.8z"/>
	<path class="st2" d="M2046.4,1029.9c-1.7-0.3-4-0.3-3.5-2.3c0.2-0.7,2.3-1,3.5-1.5C2046.4,1027.4,2046.4,1028.6,2046.4,1029.9z"/>
	<path class="st2" d="M130.7-42.2c-0.8,0.6-1.6,1.3-2.4,1.9C127.9-42,128.7-42.6,130.7-42.2z"/>
	<path class="st2" d="M2046.4-40.3c-0.8-0.6-1.6-1.3-2.4-1.9C2046.1-42.6,2046.9-42,2046.4-40.3z"/>
	<path class="st2" d="M1867.5,575.4c-2.1,6-7.6,10.1-12.4,14.5s-6.2,9.7-5.9,14.8c0.7,10.6,2.6,21.1,4.5,31.7c0.5,3,1.5,6.5,3.8,8.8
		c21.8,21.9,30.1,49.6,48.9,72.8c1.3,1.6,0.7,4.3,1,6.4c-2.3,0.8-4.6,1.6-6.9,2.4c-11.3-10.6-18.3-23.2-25.4-35.7
		c-7.1-12.6-13.7-25.3-24.7-36.2c-10-9.9-9.7-22.2-10.9-34c-1.1-10.3-1-20.8,0-31.1c1-10.2,4.9-19.7,18.3-24.1
		C1859.6,570,1863.3,572.9,1867.5,575.4z"/>
	<path class="st1" d="M1867.5,575.4c-4.2-2.5-7.9-5.4-9.6-9.5c3.3-7.4,8.7-12.6,17.2-17.6c15.5-9.1,26.1-23.2,32.1-37.2
		c3.2-7.6,11.8-12.9,12-21.1c8.7,4.5,17.4,7.3,25.9-0.3c2.5,3,0.5,6-1.9,7.4c-9.8,5.8-10.5,17.4-22,22c-1.7,0.7-0.4,2.3-0.7,3.4
		c-1.8,7.4-4.9,14.2-14.9,17c-3.5,1-5.4,2.9-5,5.6c1.1,5.8-2.9,10.5-7.6,13C1883.5,563,1882.8,576.3,1867.5,575.4z"/>
	<path class="st1" d="M866.9,96c-7.3-5.6-10.7-12.3-14.7-18.7c-5.6-9-14.6-12.9-27.2-13.6c-21.9-1.2-40.5,3.1-56.1,16.4
		c-5.6,4.8-14.7,7.3-23.1,8.2c-6.1,0.6-8.3,2.3-7.9,7c0.5,5.3-0.4,10.6,1.1,16c4.4,15.4-7.4,26.5-26.8,24.3
		c-15.5-1.7-30.2-6.1-43.3-13.4c-2.5-1.4-6.7-3.1-4.9-5.6c2.5-3.5,6.9-0.7,8.9,0.9c9.8,7.8,22.1,9.9,35,11.2
		c11.1,1.1,19-2.7,20.2-11.2c0.9-6.8,3.8-13.5,2.8-20.5c-0.8-5.6,2.5-11.1,8.3-12.4c18.3-4.3,32.1-14.8,48.9-20.9
		c17.1-6.2,35.3-4,53.1-2.5c11,0.9,14.9,9.3,21.1,15.2C868.4,82.1,872.9,87.7,866.9,96z"/>
	<path class="st1" d="M1900.6,726.8c2.3-0.8,4.6-1.6,6.9-2.4c12.7-2.3,18.5,0.9,18.8,11.3c0.1,4.5,2.5,7,5.9,10.4
		c8.4,8.2,20.7,12.9,28.2,21.9c4.5,5.5,12.3,7.6,20.5,8.1c-0.3,5.7-6.3,8.7-9.4,13.1l-0.3,0.2c-9.8,0.5-15.3-3.7-22.2-9.3
		c-11.6-9.5-19.8-21.8-36.2-27.6C1903,749,1897.8,735.5,1900.6,726.8z"/>
	<path class="st1" d="M1533.8,393.6c7.5-0.8,9.4,1.9,8.7,7.2c-1.7,12.4-2.9,24.9-4.5,37.3c-0.4,3.1-1.1,6.2-2.4,9.2
		c-2.6,6-8.6,6.5-15.2,5.4c-7.7-1.3-5.3-5.3-4.2-9.5c3.6-14.6,6.9-29.3,9.9-44C1527,394.9,1528.8,392.8,1533.8,393.6z"/>
	<path class="st1" d="M1797,798.9c-9.1-0.1-16.6-6.6-26.4-4.4c-0.8,0.2-2.9-0.5-2.9-0.9c-1.5-13.2-16.6-9.7-25.7-13.5
		c-4.8-2-9.9-3.5-15.5-8.6c11.3,3.3,20.2,5.8,29.1,8.4c5.2,1.5,9.8,2.5,15.5-0.3c7.3-3.5,12-1,15.6,5.9c2,3.9,6.9,1.3,10.4,1.9
		C1801.3,791.2,1797.8,795,1797,798.9z"/>
	<path class="st2" d="M1797,798.9c0.8-3.8,4.3-7.7,0-11.5c5.5-2.1,9.4-0.9,11.6,3.7c-2,2-8.8-1.2-7.5,5.1c1.1,5.3,9.8,0.9,10,6.2
		c2.9-0.9,6.6,3,9-0.8c0.5-0.7,0.2-1.8,0.3-2.7c1.8,0.3,4.6,0.1,5.3,1c2.1,2.4,3.4,4.7,7.7,2.3c4-2.2,2.9-4.5,1.1-7.1
		c3.1-1.2,6.3-2.3,11.6-4.3c-6.5,11.1,7.7,8.8,11.2,13.7c-4,2.4-6.9-0.3-10-0.6c-2.2-0.2-4.5-1.8-6.5-0.2c-2.5,2.1-3,7.5-7.5,6
		c-11.1-3.7-23.9-0.9-34.1-6.7C1798,802.2,1797.8,800.3,1797,798.9z"/>
	<path class="st2" d="M1945.1,489.7c-8.5,7.5-17.2,4.7-25.9,0.3c-0.3-0.8-0.7-1.6-1-2.3c15.7,2.2,15.4-8.3,19.2-15.6
		c0.3-0.6,2-0.6,3.1-1c0,6.3,5.3,8.3,11.7,9.4l0.2,0.2c-0.1,1.2-0.3,2.4-0.4,3.5C1947.9,484.6,1945.6,486.4,1945.1,489.7z"/>
	<path class="st1" d="M2022.9,810.1c-5.1,2.3-8.9,5.6-11.6,9.8c-5.8-2.3-14.3-1.9-14.2-9.7c9.3,0.7,9.8-9.9,18.8-9.6
		C2017.6,804.1,2023.1,805.7,2022.9,810.1z"/>
	<path class="st2" d="M658.2,94.5c7.2-20,14.4-40.1,21.6-60.1c1.1,0.2,2.2,0.5,3.2,0.7c-5.9,20.3-13.8,40.2-21.5,60.1
		C660.4,95,659.3,94.8,658.2,94.5z"/>
	<path class="st2" d="M142.5,79c7.7-8.7,18.3-15.1,27.3-22.8c2-1.7,4.8-2.2,7.6-1.6c8.4,2,16.8,4.1,28,6.9c-7.4,2.2-12,0.7-15.4-0.7
		c-11.2-4.6-18.8-1.5-26.3,5.5C157.9,71.8,152.4,78,142.5,79L142.5,79z"/>
	<path class="st1" d="M1997,793.1c0.9,1.3,1.8,2.6,2.7,3.9c-1.4,6.7-4.5,11.4-14.5,7.6c-0.8-0.7-1.6-1.3-2.5-2
		c-0.3-4.9-4.3-5.8-9.3-5.7l0,0c-0.8-1.9-1.6-3.8-2.4-5.6c0-0.6,0-1.2-0.1-1.9l0.3-0.2c2.5,0.2,5.3-0.1,7,1.9
		c0.6,5.1,5.6,3.5,9.2,3.9C1991,795.3,1994.1,794.4,1997,793.1z"/>
	<path class="st2" d="M250.7-2.4c11.4,4.3,22,9.5,30.6,17c-7.4-0.1-13.9-2.6-18.6-6.7c-6.6-5.7-9.8-4-12.8,2.2
		c-1.2,2.6-2.6,5.3-6.3,6.4l0,0C242.9,9.4,251.5,4.6,250.7-2.4z"/>
	<path class="st2" d="M1985.3,804.6c10,3.9,13-0.8,14.5-7.6c4.5,3.6,12.4-2.6,16.1,3.5c-9-0.2-9.4,10.3-18.8,9.6
		C1991.8,810.1,1986,810.8,1985.3,804.6z"/>
	<path class="st2" d="M1902.6,999.4c14.6-0.3,25.7,5.6,37.3,10.7c-0.4,0.8-0.8,1.5-1.2,2.3
		C1926.6,1008.1,1914.6,1003.8,1902.6,999.4z"/>
	<path class="st1" d="M1820.5,798.8c-0.1,0.9,0.2,2-0.3,2.7c-2.5,3.8-6.1-0.1-9,0.8c-0.1-5.2-8.9-0.8-10-6.2c-1.3-6.3,5.5-3,7.5-5.1
		c1,0.7,1.9,1.4,2.9,2.1c0.3,0.7,0.6,1.5,0.9,2.2c0.3-0.8,0.7-1.6,1-2.4c1.6,0,3.2,0,4.8-0.1
		C1819.2,794.9,1814.2,798.3,1820.5,798.8L1820.5,798.8z"/>
	<path class="st2" d="M276.6,3.3c-5.5-3.8-10.9-7.6-16.4-11.4C270.9-10.9,277.6-6.2,276.6,3.3z"/>
	<path class="st2" d="M1979.5,871.3c-7.6-1.2-11.1-5.7-14.3-10.4C1972.8,862.1,1976.3,866.6,1979.5,871.3z"/>
	<path class="st2" d="M1942.4,847.6c8.9,3.1,12.6,7.3,17,11.8C1951.6,858.9,1949.8,857.7,1942.4,847.6z"/>
	<path class="st1" d="M1834.6,795c1.8,2.6,2.9,4.9-1.1,7.1c-4.3,2.3-5.6,0-7.7-2.3c-0.8-0.9-3.5-0.7-5.3-1l0,0
		c2.4-1.3,4.7-2.5,7.1-3.8C1829.9,795,1832.3,795,1834.6,795z"/>
	<path class="st2" d="M229.5,34.7c-1.2,8.1-4.5,12.8-11.3,19.2C219.9,45.6,223.3,41,229.5,34.7z"/>
	<path class="st2" d="M1950,461.7c2.2-1.6,4.5-3.2,6.8-4.8c3.1,7.4,2.6,8.2-6.6,10C1950.1,465.1,1950,463.4,1950,461.7z"/>
	<path class="st2" d="M243.7,16.5c-2,5.9-5,11.3-10.7,15.5C234.5,25.9,235.2,19.5,243.7,16.5L243.7,16.5z"/>
	<path class="st2" d="M1885.8,814c-10.1,2.6-13.9-2.5-19.4-3.8C1872.9,809.1,1877.9,811.5,1885.8,814z"/>
	<path class="st2" d="M1916.2,823.6c-9.1,2.4-12.8-1.2-19.5-4.4C1905.3,818.4,1909.1,821.5,1916.2,823.6z"/>
	<path class="st2" d="M1827.6,795c-2.4,1.3-4.7,2.5-7.1,3.8c-6.3-0.5-1.3-3.9-2.3-5.7C1822.7,789.5,1825.2,792,1827.6,795z"/>
	<path class="st2" d="M1976.8,1020.4c-5,2.2-9.2-0.1-16.8-1.5C1968.2,1015.9,1972.3,1019.1,1976.8,1020.4z"/>
	<path class="st2" d="M686.6-20.1c4.7,6.3,4.7,6.3,0,12.4C686.6-11.9,686.6-15.6,686.6-20.1z"/>
	<path class="st2" d="M1956.1,1015.7c-6.1,1.7-6.1,1.7-11.5-2.3C1948.4,1014.1,1952.3,1014.9,1956.1,1015.7z"/>
	<path class="st2" d="M683.7,16.4c3.6,4.4,2.1,7-1.2,10.2C681.1,23,680.8,20.2,683.7,16.4z"/>
	<path class="st2" d="M684.6,10.3c-1-4.4-1.4-7.2,1.4-10.8C689.6,3.6,688,6.2,684.6,10.3z"/>
	<path class="st2" d="M1973.5,796.9c5-0.1,9,0.8,9.3,5.7C1977.8,802.8,1973.9,801.7,1973.5,796.9z"/>
	<path class="st2" d="M1993.1,876.9c1.2-2,2.6-2.3,4.1-1.9c1.9,0.5,3.7,1.4,3.4,3.2c-0.3,1.6-2,1.7-3.5,1
		C1995.7,878.5,1994.4,877.6,1993.1,876.9z"/>
	<path class="st2" d="M210.1,66.1c-1.4-4.9,1.4-6.6,3.8-9.8C216,61,213.7,63,210.1,66.1z"/>
	<path class="st2" d="M1985.4,1021.6c3.3-1.5,6-1.5,8.6,0.4C1990.1,1025.9,1987.9,1022.5,1985.4,1021.6z"/>
	<path class="st2" d="M2008.7,1022.5c1.5,0.1,3.3,0.1,3.3,1.7s-1.8,1.7-3.3,1.7s-3.3-0.1-3.3-1.7
		C2005.4,1022.6,2007.2,1022.6,2008.7,1022.5z"/>
	<path class="st2" d="M2027.9,1024.2c0.7,0.4,2.5,0.8,2.9,1.6c0.7,1.7-1.4,2-2.8,1.9c-1.3-0.1-3.3-0.6-3.6-1.4
		C2023.7,1024.7,2025.8,1024.7,2027.9,1024.2z"/>
	<path class="st2" d="M1305.2,891.1c-0.1-0.1-0.9-1.2-1.3-2.3c-0.5-1.4,0.5-2.5,2.2-2c1.2,0.3,2.2,1.5,2.8,2.5
		C1309.4,890.2,1308.3,890.8,1305.2,891.1z"/>
	<path class="st2" d="M1931,838.4c4,0.8,7.4,1.8,5.8,4.2c-1.5,2.3-3.8,0.1-4.9-1.4C1931.3,840.5,1931.3,839.5,1931,838.4z"/>
	<path class="st2" d="M1330.1,907.6c-2.9,1.4-4,2.3-4.4,2.1c-1.2-0.5-2.7-1.3-3-2.2c-0.5-1.4,0.8-2.2,2.5-1.8
		C1326.5,906,1327.8,906.7,1330.1,907.6z"/>
	<path class="st2" d="M249.5-18.8c-0.8,0.2-1.8,0.7-2.7,0.7c-1.2,0-2.4-0.7-1.8-1.8c0.4-0.6,1.8-1.1,2.7-1.1
		C248.9-21,249.9-20.3,249.5-18.8z"/>
	<path class="st2" d="M1971.1,791.3c0.8,1.9,1.6,3.8,2.4,5.6C1968.5,796.2,1967.5,794.3,1971.1,791.3z"/>
	<path class="st2" d="M142.5,79c-1.3,2.5-3.7,3.8-7.1,3.8l0,0C135.7,79,139,79,142.5,79L142.5,79z"/>
	<path class="st2" d="M1919.9,828.4c-0.6-0.2-1.6-0.3-1.8-0.7c-0.2-0.4,0.4-1,0.7-1.5c0.6,0.2,1.6,0.3,1.8,0.7
		C1920.8,827.3,1920.2,827.9,1919.9,828.4z"/>
	<path class="st2" d="M1927.3,837c0.7-0.6,1.2-0.9,1.6-1.3c0.7,0.6,1.5,1.2,2,1.9c0.7,0.9,0.2,1.3-1,0.8
		C1929.1,838.1,1928.2,837.5,1927.3,837z"/>
	<path class="st2" d="M1987,871.6c0.6,0.2,1.6,0.3,1.8,0.7c0.2,0.4-0.3,1.3-0.8,1.4c-0.5,0.1-1.2-0.4-1.9-0.6
		C1986.4,872.6,1986.7,872.1,1987,871.6z"/>
	<path class="st2" d="M259.2-18.1c-0.3,0.5-0.4,1.3-0.9,1.4c-0.4,0.1-1.6-0.3-1.7-0.6c-0.2-0.4,0.3-1.3,0.8-1.4
		C257.8-18.8,258.6-18.3,259.2-18.1z"/>
	<path class="st2" d="M684.3-31.6c-0.6-0.2-1.6-0.3-1.8-0.7c-0.2-0.4,0.4-1,0.7-1.5c0.6,0.2,1.6,0.3,1.8,0.7
		C685.2-32.7,684.6-32.1,684.3-31.6z"/>
	<path class="st2" d="M1313.6,894.9c-0.3,0.5-0.4,1.3-0.9,1.4c-0.4,0.1-1.6-0.3-1.7-0.6c-0.2-0.4,0.3-1.3,0.8-1.4
		C1312.2,894.2,1312.9,894.7,1313.6,894.9z"/>
	<path class="st2" d="M1813.5,793.1c-0.3,0.8-0.7,1.6-1,2.4c-0.3-0.7-0.6-1.5-0.9-2.2C1812.2,793.2,1812.8,793.1,1813.5,793.1z"/>
	<path class="st2" d="M1225.1,946.5c5.9-0.3,10.3,2.3,14.8,4.9c8.2,4.7,13,2,15.4-4.9c2.2-6.5,4-13.2,7.5-19.5
		c-0.2,9.8-1.7,19.5-8,28c-2,2.7-7,3.7-11.7,1.6C1236.6,953.8,1229.7,951.5,1225.1,946.5L1225.1,946.5z"/>
	<path class="st2" d="M1218,942.8c-12.8-2.3-25.7-4.6-38.5-7c-2-0.4-5.6-0.5-4.8-2.9c0.7-2.1,4.4-3.8,6.6-2.2
		c8.3,6,18.4,5.9,28.4,6.6C1213.6,937.6,1217.4,938.8,1218,942.8L1218,942.8z"/>
	<path class="st2" d="M1100.3,903c7.9-2,17.1-13.8,17-22c0-1.8,0-3.5,0-7.4c5.9,6,4.6,10.4,2.6,14.5c-2.5,4.9-5.8,9.6-8.7,14.4
		C1107.9,907.8,1104.3,908.1,1100.3,903L1100.3,903z"/>
	<path class="st2" d="M1079.2,891.6c-10.5-3.4-21.1-6.8-29.5-13.3C1059.2,883.1,1073.2,881.7,1079.2,891.6L1079.2,891.6z"/>
	<path class="st2" d="M1264.8,919.8c-0.8-1.3-1.7-2.1-1.6-2.7c0.1-0.6,1.3-1.2,2-1.7c0.6,0.7,1.6,1.4,1.6,2.1
		C1266.9,918,1265.8,918.7,1264.8,919.8z"/>
	<path class="st2" d="M1114.8,919.1c0.4-1.3,1.1-2.3,2.4-1.8c0.7,0.3,1.3,1.4,1.3,2.2c0,1-0.9,1.9-2.2,1.4
		C1115.6,920.6,1115.2,919.6,1114.8,919.1z"/>
	<path class="st2" d="M1181.9,919.2c1.9-0.3,2.7,0.5,2.6,1.5c0,0.8-0.7,1.9-1.4,2.2c-1.3,0.5-2.2-0.5-2.2-1.5
		C1180.9,920.6,1181.6,919.8,1181.9,919.2z"/>
	<path class="st2" d="M1117.2,928.5c0.4-1.3,1.1-2.3,2.4-1.8c0.7,0.3,1.3,1.4,1.3,2.2c0,1-0.9,1.9-2.2,1.4
		C1117.9,930.1,1117.6,929,1117.2,928.5z"/>
	<path class="st2" d="M1093.3,899.2c3.4,0,6.8,0,7.1,3.8l0,0C1097,902.9,1094.6,901.7,1093.3,899.2L1093.3,899.2z"/>
	<path class="st2" d="M1218,942.8c3.4,0,6.8,0,7.1,3.8l0,0C1221.7,946.5,1219.3,945.3,1218,942.8L1218,942.8z"/>
	<path class="st2" d="M1079.2,891.6c3.4,0,6.8,0,7.1,3.8l0,0C1082.8,895.4,1080.5,894.1,1079.2,891.6L1079.2,891.6z"/>
	<path class="st2" d="M1093.3,899.2c-3.4,0-5.7-1.3-7.1-3.8l0,0C1089.6,895.4,1093,895.4,1093.3,899.2L1093.3,899.2z"/>
	<path class="st2" d="M1479.2,16.6c0.2,8.2,8.6,11.4,15.3,15.5c22.6,13.9,47.6,25.3,67.3,42.2c8.9,7.6,15.2,16.7,24.6,24
		c6.2,4.8,11.8,6.6,19.9,3.8c4.2-1.4,9.4-1.1,13.6-2.6c10-3.7,15.6,0.9,20.6,6.5c9.4,10.5,22.3,16.6,37.8,18.5
		c9.1,1.1,15.4,7.1,24.6,7.6c-3.8,5.4-8.3,10.7-2.5,17c-5.5,0.2-9.4-1.2-9.3-6.2c0.1-5.8-4.7-7.7-10.3-8.6c-20-3.4-38.2-9.1-50-23.6
		c-2.7-3.3-6.7-4.2-10.1-2.7c-25.3,11.2-41.1,0.8-54.9-15c-18.8-21.6-46.7-34.9-72.1-50.5c-9.1-5.6-19.8-9.9-26.1-18.1
		C1471.4,21.7,1475.3,19.1,1479.2,16.6z"/>
	<path class="st1" d="M1874.6,289.2c2.4,0.2,5.3,0.7,5.8,2.6c5.4,18,24.6,28.6,36.3,43.3c3.9,4.9,5.6,11.6,15.8,12.8
		c5.1,0.6,1.4,9.2,8,11.5c2.2,11.9,1.7,12.5-11.7,13.3c-0.8-1.3-1.7-2.6-2.5-3.9c0-2.4-1.6-3.5-4.5-3.6c0-0.7-0.1-1.4-0.1-2.1
		c2.4-1.5,3.1-3.6,1.7-5.6c-0.9-1.2-2.5,0-3.7,0.6c-15.9-6.9-24.7-19.3-35.4-30.1c-2-2.1-4-2.7-6.7-2.8c-3.4-0.1-7-1.2-6.8-4
		c0.5-8.7-8.7-14.4-10.1-22.5c0-1.2,0.1-2.5,0.1-3.7c0.2-0.3,0.3-0.5,0.5-0.8c-0.2,0.2-0.4,0.5-0.5,0.7c-1.6,0.1-3.2,0.1-4.8,0.2
		c-0.1-0.8-0.2-1.6-0.3-2.4c2.5-2.4,5-4.8,7.6-7.2c2.4-0.6,4.8-1.3,7.1-1.9C1869.5,286.6,1867.8,290.1,1874.6,289.2z"/>
	<path class="st1" d="M1700.4,149.1c-5.8-6.3-1.4-11.6,2.5-17c7.8-2,11.9,3.9,13.3,6.9c4.5,9.6,12.2,14.2,24.1,16.4
		c11.4,2.1,23.6,4.6,21.3,18.3c-0.1,0.7,8.2,8.6,14.2,11s9.6,4.9,9.5,10.4c0,4.9,6.3,6,9.3,9.1c-5.1,1.3-12.1,0.6-11.8,7.5
		c-8.5,1.5-12.4-3.2-15.1-8.1c-4.1-7.3-7.8-14.5-14.4-20.9c-7-6.7-11.2-15.3-25.6-11.2c-4.9,1.4-7.7-1.2-3.6-5.3
		c2.6-2.6,2.4-5.6-1.9-5.3C1710.5,161.8,1706.3,154.6,1700.4,149.1z"/>
	<path class="st2" d="M1782.8,211.6c-0.3-6.9,6.7-6.2,11.8-7.5c0,13.7,13.7,21.4,21.8,31.3c13.2,16.2,27.2,32.1,44.4,45.9
		c1.2,1,1.4,2.8,2.1,4.3c-2.5,2.4-5,4.8-7.6,7.2c-9.8-15.4-27.1-26.3-38.3-41C1806.5,237.9,1792.8,225.8,1782.8,211.6z"/>
	<path class="st2" d="M1425.3-19.6c6.5-0.1,11.2,2.5,16.7,5.3c8.2,4.1,11.4,12.6,23.2,13.8c6.9,0.7,4.3,8.4,4.7,13.2
		c-6.8-0.4-10.8,2.2-12.2,7.5c-10.5-3.2-13.8-11.8-20.5-17.9c-4-3.6-3.2-11.7-14.3-7.5c-3.4,1.3-8.9-1.7-9.4-6.4
		c9.2,2.6,12.1-0.9,11.6-7.7L1425.3-19.6z"/>
	<path class="st2" d="M1928.8,372.6c13.4-0.8,13.9-1.3,11.7-13.3c6.4,1,15,0.5,7.9,9.3c-2,2.5,1.7,4.5,3,6.6
		c3.2,4.9,9.9,8.2,10.3,14.4c-13.8,0.8-10.1,8.5-9.4,15.1l0,0c-3,0.6-6,1.7-9,1.7c-4.4,0-10.3,2-12.9-1.5c-1.7-2.4-0.2-6.7,3-9.3
		c5-4.2-3.4-6.3-2.3-9.9c1.8-0.6,3.6-1.2,5.4-1.7c2.1-0.5,5.5,0,5-2.6c-0.3-1.5-2.4-3.1-4.2-4.2
		C1934.7,375.6,1929.1,377.3,1928.8,372.6z M1945.2,390.2c-3.1,1.9-0.9,6.1-6.1,7c-2.4,0.4-3.2,1.7-1.4,3.3c1,0.8,2.6,1.4,4,1.6
		c2.5,0.4,3.4-1.1,3.4-2.7C1945.3,396.3,1945.2,393.2,1945.2,390.2z"/>
	<path class="st2" d="M1397-34.6c12.6,1.1,22.1,6,28.2,15l-0.2,0.2c-0.9,0.1-1.8,0.1-2.6,0.2c-0.7,0.4-1.3,0.8-2,1.2
		c-4.2-0.1-10.2-3-9.6,4.1c-7.4,2.9-13.6,3.5-17.5-4.3c-1.9-3.8-9.6-3.9-10.7-9l0,0c7.5,3.6,15.6-1.9,23.3,2.1
		C1405.5-30.6,1396.7-29.6,1397-34.6z"/>
	<path class="st2" d="M1344.5,80c3.9-12.9-9-22.9-0.3-33.8C1347.7,51,1349.4,74.3,1344.5,80z"/>
	<path class="st1" d="M1457.6,20.2c1.4-5.3,5.4-7.9,12.2-7.5c0.9,4.9,7.7,0.4,9.4,3.9c-3.9,2.5-7.8,5.1-11.7,7.6
		C1463.2,24.6,1459.7,23.4,1457.6,20.2z"/>
	<path class="st2" d="M1008.6-34.6c-0.4,2.2,0.1,6.6-4.3,4.5c-9.6-4.6-11.9,0.3-14.1,7.6c-2.7-11.5,0.2-14.1,11.4-12.4
		C1003.9-34.6,1006.2-34.7,1008.6-34.6C1008.5-34.6,1008.6-34.6,1008.6-34.6z"/>
	<path class="st2" d="M979.2,17.4c-11.4-10.9-10.8-12.5,5.2-16.6C977.5,5.3,973.4,10.4,979.2,17.4z"/>
	<path class="st2" d="M1332.5,4.4c-4.4-5.8-9.3-11.5-8-19.5c3.7,6.1,7.3,12.2,11,18.3C1334.5,3.7,1333.5,4,1332.5,4.4z"/>
	<path class="st2" d="M1926.4,385.8c0,5.9,0,11.7,0,17.6c-1.2,0-2.3-0.1-3.5-0.1c0-6.5-6.1-13.3,3.5-19.3
		C1926.4,384.5,1926.4,385.1,1926.4,385.8z"/>
	<path class="st1" d="M1422.4-19.2c0.9-0.1,1.8-0.1,2.6-0.2c0.6,6.9-2.4,10.3-11.6,7.7c-0.9-0.7-1.7-1.4-2.6-2.2
		c-0.7-7.1,5.4-4.3,9.6-4.1C1421.1-18.4,1421.7-18.8,1422.4-19.2z"/>
	<path class="st2" d="M1047.5,66.7c7.5,2.7,12.1,4.3,18,6.4C1056.1,74.4,1056.1,74.4,1047.5,66.7z"/>
	<path class="st2" d="M991.1-17c2.3,6.7-3.1,8.8-6.6,14.4C983-10.1,987.7-12.6,991.1-17z"/>
	<path class="st2" d="M1334.8-36.2c4,2.2,4.5,4.9,4.5,8.9C1334.6-29.7,1332.8-31.9,1334.8-36.2z"/>
	<path class="st2" d="M1333.2-25.1c0.7,1.3,1.7,2.2,1.4,2.6c-0.7,0.9-1.9,2-3.1,2.2c-2.1,0.4-2.5-1.1-1.8-2.2
		C1330.4-23.4,1331.7-24,1333.2-25.1z"/>
	<path class="st2" d="M1919.5,358.1c1.2-0.6,2.8-1.8,3.7-0.6c1.4,2,0.8,4.1-1.7,5.6C1919.2,361.9,1919.4,360,1919.5,358.1z"/>
	<path class="st2" d="M1860.6,295c0,1.2-0.1,2.5-0.1,3.7c-2.4-0.5-7.5,1.3-4.8-3.6C1857.3,295,1858.9,295,1860.6,295
		C1860.5,294.9,1860.6,295,1860.6,295z"/>
	<path class="st2" d="M1333.7,11.7c0.4-1.3,1.1-2.3,2.4-1.8c0.7,0.3,1.3,1.4,1.3,2.2c0,1-0.9,1.9-2.2,1.4
		C1334.4,13.3,1334.1,12.3,1333.7,11.7z"/>
	<path class="st2" d="M1340,23.1c-0.4,1.3-1.1,2.3-2.4,1.8c-0.7-0.3-1.3-1.4-1.3-2.2c0-1,0.9-1.9,2.2-1.4
		C1339.3,21.6,1339.6,22.6,1340,23.1z"/>
	<path class="st2" d="M1340.2,37.1c-0.8-1.3-1.7-2.1-1.6-2.7c0.1-0.6,1.3-1.2,2-1.7c0.6,0.7,1.6,1.4,1.6,2.1
		C1342.2,35.3,1341.1,36,1340.2,37.1z"/>
	<path class="st2" d="M1045.2,65.2c-0.3,0.5-0.5,1-0.8,1.5c-0.6-0.2-1.6-0.3-1.8-0.7c-0.2-0.4,0.4-1,0.7-1.5
		C1043.9,64.8,1044.5,65,1045.2,65.2z"/>
	<path class="st2" d="M1028.3,58.7c0.3-0.5,0.4-1.3,0.9-1.4c0.4-0.1,1.6,0.3,1.7,0.6c0.2,0.4-0.3,1.3-0.8,1.4
		C1029.7,59.4,1029,58.9,1028.3,58.7z"/>
	<path class="st2" d="M1921.7,365.1c2.9,0.1,4.5,1.2,4.5,3.6C1923.3,368.7,1921.8,367.5,1921.7,365.1z"/>
	<path class="st2" d="M1038.1,61.5c-0.3,0.5-0.5,1-0.8,1.5c-0.6-0.2-1.6-0.3-1.8-0.7c-0.2-0.4,0.4-1,0.7-1.5
		C1036.8,61,1037.5,61.2,1038.1,61.5z"/>
	<path class="st1" d="M1954.6,137.9c-6.2,1.3-12.4,2.7-18.6,4c-5.1-7.8-9.4-15.7-5.9-24.9c0.9-2.2-0.9-4.8-3-5.8
		c-14.2-7-14.5-19-17-30.1c-1-4.5-1-8.8-8.2-10c-4.1-0.7-5-4.6-2.4-5.7c12.1-5.1,2.2-10,0.5-15c-0.5-3.5,2.3-5.5,5.2-7.4l0,0
		c4.1-0.1,8.1-0.2,11.7-2.2c3.9,0.5,9.2,0.3,4.4,5.3c-4.7,5-5.4,9.6,0.6,14.2c2.6,2,2.4,4.7,2,7.1c-0.9,6.8-2.4,12.7,9,15.8
		c7.1,2,3,10.7,1.7,13.3c-3.7,7.5,2.4,13.5,5.9,15.9c8,5.3,6.1,11.5,7,17.6c1,1.7-1.6,6.3,4.6,3.7c0.9,0,1.7,0.1,2.6,0.1
		c0,1.2,0.1,2.4,0.1,3.7L1954.6,137.9z"/>
	<path class="st1" d="M1978.2,389.6c9.2,5,9.9,10.5,2.2,17.2c-1.2-0.5-2.5-1.1-3.7-1.5c-0.1,0-0.5,0.6-0.8,0.9
		c1.4,0.3,2.9,0.5,4.3,0.8c-4.1,2.9-7.7,2.9-8.9-1.9c-1.1-4.4-3.2-9-0.4-13.5C1973.4,390.9,1975.8,390.2,1978.2,389.6z"/>
	<path class="st1" d="M1952.3,404.8c-0.7-6.6-4.4-14.4,9.4-15.1c0.8,0.6,1.6,1.3,2.5,1.9C1964,398.2,1967.6,407,1952.3,404.8z"/>
	<path class="st1" d="M1397-34.6c-0.3,5.1,8.5,4,9.1,9.6c-7.7-3.9-15.9,1.6-23.3-2.1c2.8-4.1,0.2-12.4,11.7-9.7
		C1395.3-36.1,1396.2-35.3,1397-34.6z"/>
	<path class="st1" d="M2032.3,389.7c3,4.6,3.6,9.2,1,14.2c-6.4-1.7-0.9-7.3-5.6-9.2c-4.7,1.2-0.2,6.2-5.9,7.6
		c0.7-5.1-5.8-7.7-5.9-12.7c1.6,0,3.2,0,4.8,0c1.5,1.8,3,1.8,4.6,0.1C2027.6,389.6,2029.9,389.7,2032.3,389.7z"/>
	<path class="st1" d="M1895.8,33.5c5.4-3.6,10.9-0.8,16.4-0.2l0.4,0.3c1.2,5-3.6,6.9-7.4,9.4l0,0c-6,1.3-6.9-3.1-9.5-5.6
		C1895.8,36.1,1895.8,34.8,1895.8,33.5z"/>
	<path class="st1" d="M2004.1,391.4c0.1,1.3,0.4,2.5,0.2,3.8c-0.6,3.2,2.1,7.3-3.1,9.2c-2.9,1.1-6.3,1.1-8.8-0.9
		c-4.1-3.4-2.3-7.2-1.8-11.2c6.6,1.3,2.1,6.3,7.1,7.9c2.8-2.5,1.3-5.7,1.7-8.6C2000.9,391.5,2002.5,391.4,2004.1,391.4z"/>
	<path class="st2" d="M1895.7,37.4c2.6,2.5,3.5,6.9,9.5,5.6c-2.9,2-5.7,3.9-5.2,7.4C1894.3,47,1892.8,42.7,1895.7,37.4z"/>
	<path class="st2" d="M1874.6,289.2c-6.8,0.9-5.1-2.7-4.6-5.6C1874.7,283.8,1874.7,286.5,1874.6,289.2z"/>
	<path class="st2" d="M2025.2,389.6c-1.6,1.8-3.1,1.7-4.6-0.1C2022.2,387.7,2023.7,387.8,2025.2,389.6z"/>
	<path class="st0" d="M512,753c0.3,9.5-3.7,16.7-7.7,23.9c-3.3,6.1-6.7,12-6.6,18.9c0,7-5,8.3-11.6,4.9
		c-21-10.7-44.8-11.7-68.4-13.2c-21.7-1.3-43.9-1-65.1-4.5c-20.1-3.4-36.9-12.8-50.8-26.2c-14.2-13.6-15.1-26.8-9.5-43.2
		c8.2-24.5,13.7-49.5,19.6-74.5c2.6-10.9,14.3-16.1,20.9-24.4c0.4-0.5,1.4-1,2-0.9c11.9,2.7,24.2,4.7,35.5,8.5
		c5.7,1.9,5.9,8.5,7.5,13.3c4.1,12.9,2.3,25.5-4.2,37.7c-3.7,7-2.9,13.3,2,19.7c3.8,5.1,6.8,10.6,10.2,16
		c11.3,18.2,38.3,17.9,56.2,11.6c4.4-1.5,5.2-5.4,7.2-8.3c4.9-7.1,10.8-13.9,22-13.7c10.2,0.2,15,6.7,18.9,13.6
		c5.6,9.7,10.2,19.7,18.2,28.5C511.6,744.3,513.1,749.3,512,753z"/>
	<path class="st2" d="M1971.1,473c-0.8,1.9-1.6,3.8-2.4,5.7c-1.5,0-3,0-4.6,0c1-4.3-7.4-3.1-6.5-8.1
		C1962.1,472.1,1966.3,474,1971.1,473z"/>
	<path class="st2" d="M1959.3,478.7c0,1.5-0.4,2.9-2.2,3.7c-1.6-0.6-3.1-1.1-4.7-1.7l-0.2-0.2
		C1953.4,476.9,1955.6,475.8,1959.3,478.7z"/>
	<path class="st2" d="M1973.6,465.5c5.8,3.9,2.9,6-2.4,7.5C1972,470.5,1972.8,468,1973.6,465.5z"/>
	<path class="st2" d="M1978.3,791.2c-1.8-2-4.5-1.8-7-1.9c3.1-4.4,9.1-7.4,9.4-13.1c6.1,0.1,3.9,6.8,9.2,7.5
		c-1.1,4.3-10.8,1.4-9.6,7.5C1979.7,791.2,1979,791.2,1978.3,791.2z"/>
	<path class="st2" d="M1997,793.1c-3,1.2-6,2.2-9.5,1.9c0-1.3,0-2.5,0.1-3.8c2.6-2.1,5.7-4,4.7-7.6
		C1999.7,784.9,1996.1,789.8,1997,793.1z"/>
	<path class="st1" d="M1992.3,783.6c1,3.6-2,5.5-4.7,7.6c-2.4,0-4.8,0-7.3-0.1c-1.2-6.1,8.5-3.3,9.6-7.5
		C1990.7,783.6,1991.5,783.6,1992.3,783.6z"/>
	<path class="st1" d="M1952.4,480.7c1.6,0.6,3.1,1.2,4.7,1.7c-1.1,1.7-3,2-5.1,1.8C1952.1,483.1,1952.3,481.9,1952.4,480.7z"/>
	<path class="st2" d="M1905.2,43c3.7-2.5,8.6-4.4,7.4-9.4c5.9,0.7,4,4.4,4.3,7.2C1913.4,42.9,1909.3,43,1905.2,43z"/>
	<path class="st2" d="M1952.2,133.9c-6.2,2.5-3.6-2.1-4.6-3.7C1949.1,131.4,1950.7,132.6,1952.2,133.9z"/>
	<path class="st2" d="M1954.9,137.6c0-1.2-0.1-2.4-0.1-3.7c1.5,0.2,3.4,0.3,3.4,1.8C1958.3,137.4,1956.5,137.5,1954.9,137.6z"/>
	<path class="st0" d="M1901.1,15.8c-0.6-0.2-1.6-0.3-1.8-0.7c-0.2-0.4,0.4-1,0.7-1.5c0.6,0.2,1.6,0.3,1.8,0.7
		C1902,14.6,1901.4,15.3,1901.1,15.8z"/>
	<path class="st1" d="M2015.8,825.3c-1-2.9,7.9-4.2,2.1-8.3c-0.8-0.6,3.8-0.7,5.7-1.5c3.1-1.2,5.1,0.1,6.9,2s1,3.4-0.6,5
		C2026.1,826.3,2020.8,825.2,2015.8,825.3L2015.8,825.3z"/>
	<path class="st0" d="M1980.4,791.2c2.4,0,4.8,0,7.3,0.1c0,1.3,0,2.5-0.1,3.8c-3.7-0.4-8.6,1.2-9.2-3.9
		C1979,791.2,1979.7,791.2,1980.4,791.2z"/>
	<path class="st2" d="M1860.5,294.9c0.2-0.2,0.4-0.5,0.5-0.7C1860.9,294.4,1860.7,294.7,1860.5,294.9
		C1860.6,295,1860.5,294.9,1860.5,294.9z"/>
	<path class="st1" d="M1945.2,390.2c0,3.1,0.1,6.1,0,9.2c-0.1,1.6-0.9,3.1-3.4,2.7c-1.4-0.2-3-0.8-4-1.6c-1.8-1.5-1-2.8,1.4-3.3
		C1944.3,396.2,1942,392.1,1945.2,390.2z"/>
	<path class="st0" d="M1422.4-19.2c-0.7,0.4-1.3,0.8-2,1.3C1421.1-18.4,1421.7-18.8,1422.4-19.2z"/>
	<path class="st2" d="M1980.3,406.9c-1.4-0.3-2.9-0.5-4.3-0.8c0.3-0.3,0.7-1,0.8-0.9c1.3,0.5,2.5,1,3.7,1.5L1980.3,406.9z"/>
</g>
<g>
	<text transform="matrix(1 0 0 1 644.3944 391.3827)" class="st3 st4 st5">Nearby Spot</text>
	<text transform="matrix(1 0 0 1 659.3944 405.2596)" class="st3 st4 st5">Nearby Spot</text>
	<text transform="matrix(1 0 0 1 281.3124 699.5386)" class="st3 st4 st5">Nearby Spot</text>
	<text transform="matrix(1 0 0 1 623.3124 819.0331)" class="st3 st4 st5">Nearby Spot</text>
	<text transform="matrix(1 0 0 1 635.3124 599.0331)" class="st3 st4 st5">Nearby Spot</text>
	<circle class="st3" cx="630.3" cy="386.3" r="5"/>
	<circle class="st3" cx="649.4" cy="400.2" r="5"/>
	<circle class="st3" cx="625.2" cy="594" r="5"/>
	<circle class="st3" cx="272.5" cy="694.5" r="5"/>
	<circle class="st3" cx="615.1" cy="814" r="5"/>
</g>
<g id="camera-path" class="st6">
	<path class="st7" d="M1173,603C617,744.3,447.3,760.3,437,730c-10.5-30.7,147.2-95,137-180c-10-83.5-172.7-111.9-166-164
		c6.6-51.9,171-45.7,188-108c13-47.8-66.9-113.6-160-173"/>
</g>
<g id="trail-path" class="st6">
	<path class="st8" d="M1190.1,628.1c-116.1,67.2-212.8,89.8-282,97.5c-79.2,8.8-265.3,13.8-321,21c-3.8,0.5-11.7,1.6-22.5,1.5
		c-35.6-0.3-44.6-13.3-69-13.5c-33.5-0.2-42.5,24.1-61.5,16.5c-17-6.8-25.5-32.5-22.5-52.5c3.7-25,25.1-39.2,36-46.5
		c35.3-23.5,56-8.7,78-27c26.6-22.2,26.6-69.4,18.4-98.9c-14.1-50.9-60.5-77.9-81.4-90.1c-51.9-30.2-80.9-18.8-121.5-55.5
		c-21.4-19.3-39.1-45.8-33-54c10.1-13.7,73.8,40.2,126,16.5c19.1-8.6,39-28.7,37.5-48c-2.6-32.8-66-42.3-64.5-64.5
		c1.7-24.2,78-26.8,82.5-54c3.2-19-30.2-40.5-58.5-55.5"/>
</g>
<g id="points" class="st6">
	<circle id="Reykjavk" class="st9" cx="1190.1" cy="628.1" r="5.8"/>
	<circle id="Reykjanesta" class="st9" cx="727.6" cy="737.5" r="5.8"/>
	<circle id="Krsuvkurbjarg" class="st9" cx="549.4" cy="569" r="5.8"/>
	<circle id="Hverageri" class="st9" cx="372.9" cy="402.2" r="5.8"/>
	<circle id="Gullfoss" class="st9" cx="454.4" cy="269.5" r="5.8"/>
	<circle id="Eyjafjallajkull" class="st9" cx="429.4" cy="121.1" r="5.8"/>
</g>
</svg>
