<?xml version="1.0" encoding="utf-8"?>
<!-- Generator: Adobe Illustrator 21.0.2, SVG Export Plug-In . SVG Version: 6.00 Build 0)  -->
<svg version="1.1" id="Layer_1" xmlns="http://www.w3.org/2000/svg" xmlns:xlink="http://www.w3.org/1999/xlink" x="0px" y="0px"
	 viewBox="0 0 439.4 439.4" style="enable-background:new 0 0 439.4 439.4;" xml:space="preserve">
<style type="text/css">
	.st0{fill:none;stroke:#000000;stroke-width:4;stroke-linecap:round;stroke-linejoin:round;}
	.st1{fill:#ED4F4F;stroke:#000000;stroke-width:4;stroke-linejoin:round;}
	.st2{fill:#FFF396;stroke:#000000;stroke-width:4;stroke-linecap:round;stroke-linejoin:round;}
	.st3{fill:#A5D2F3;stroke:#000000;stroke-width:4;stroke-linecap:round;stroke-linejoin:round;}
	.st4{fill:#6DB7EC;stroke:#000000;stroke-width:4;stroke-linecap:round;stroke-linejoin:round;}
	.st5{fill:#8DC6F0;stroke:#000000;stroke-width:4;stroke-linecap:round;stroke-linejoin:round;}
	.st6{fill:#75BBED;stroke:#000000;stroke-width:4;stroke-linecap:round;stroke-linejoin:round;}
	.st7{fill:#5AADE9;stroke:#000000;stroke-width:4;stroke-linejoin:round;}
	.st8{fill:none;stroke:#000000;stroke-width:4;stroke-linejoin:round;}
	.st9{fill:#FFFFFF;stroke:#000000;stroke-width:4;stroke-linejoin:round;}
	.st10{fill:#F06F6F;stroke:#000000;stroke-width:4;stroke-linejoin:round;}
	.st11{fill:#FFF396;stroke:#000000;stroke-width:4;stroke-linejoin:round;}
	.st12{fill:#3A9DE5;stroke:#000000;stroke-width:4;stroke-linejoin:round;}
	.st13{fill:#A8D4F4;stroke:#000000;stroke-width:4;stroke-linejoin:round;}
	
		.st14{fill:none;stroke:#000000;stroke-width:4;stroke-linecap:round;stroke-linejoin:round;stroke-dasharray:93.64,6.07,49.57,6.07;}
	
		.st15{fill:none;stroke:#000000;stroke-width:4;stroke-linecap:round;stroke-linejoin:round;stroke-dasharray:38.56,0,93.64,6.07,49.57,6.07;}
	.st16{fill:#FFFFFF;stroke:#000000;stroke-width:4;stroke-miterlimit:10;}
	.st17{fill:none;stroke:#30363D;stroke-width:4;stroke-miterlimit:10;stroke-dasharray:1.9338,1.9338;}
	.st18{fill:none;stroke:#30363D;stroke-width:4;stroke-miterlimit:10;stroke-dasharray:1.9378,1.9378;}
</style>
<title>home_page_illlustrations</title>
<line class="st0" x1="151.7" y1="92.4" x2="124.1" y2="59.4"/>
<line class="st0" x1="310.9" y1="282.1" x2="282.5" y2="248.3"/>
<path class="st0" d="M315.7,253.1c-45.4,54.9-126.6,62.6-181.5,17.2S71.7,143.6,117,88.8c10.5-12.8,23.4-23.4,38-31.2"/>
<path class="st1" d="M201.4,299.9c-0.1,0.6-0.1,1.2-0.1,1.8c0,1.5,0.2,2.9,0.7,4.3c0.8,2.3,2.1,4.4,3.9,6c6,5.4,15,5.4,21,0.1
	c1.7-1.5,3-3.4,3.8-5.6c0.6-1.5,0.9-3.2,0.9-4.8c0-0.6,0-1.2-0.1-1.8c-5,0-10,0.8-15,0.8S206.4,299.9,201.4,299.9z"/>
<polygon class="st1" points="226.9,340.9 216.4,340.9 205.9,340.9 205.9,316.1 226.9,316.1 "/>
<path class="st1" d="M276.7,375.2H156.1c10.3-19.6,29.6-33,51.6-35.8c2.9-0.4,5.8-0.5,8.7-0.5C241.7,338.8,264.9,352.8,276.7,375.2z
	"/>
<line class="st0" x1="166.5" y1="361.5" x2="206.3" y2="361.5"/>
<line class="st0" x1="214.1" y1="361.5" x2="221.3" y2="361.5"/>
<rect x="87.4" y="376.2" class="st2" width="259.7" height="9.1"/>
<path class="st3" d="M143.1,91.9c-20.3,23.6-8.9,74.5,27.4,117.8l0.2,0.3l-36.7,30.8C96.9,196.5,100.9,131.1,143.1,91.9z"/>
<path class="st3" d="M286.2,253.8l0.2,0.3c-45.8,38.4-114.1,32.5-152.5-13.3l36.7-30.8C209.1,255.5,260.8,275.2,286.2,253.8z"/>
<path class="st4" d="M263,132.4l-0.2-0.3c-36.3-43.2-84.5-63.3-111.2-47.4c46-34.7,111.1-27.3,148.2,16.8L263,132.4z"/>
<path class="st4" d="M299.8,101.5c38.4,45.8,32.5,114.1-13.3,152.5l-0.2-0.3c25.5-21.4,15.1-75.7-23.2-121.4L299.8,101.5z"/>
<path class="st5" d="M147.2,88.2l69.6,82.9l-46.2,38.8l-0.2-0.3c-36.3-43.2-47.6-94.2-27.4-117.8l0,0
	C144.5,90.6,145.8,89.4,147.2,88.2z"/>
<path class="st6" d="M262.8,132.1l0.2,0.3l-46.2,38.8l-69.6-82.9c1.4-1.2,2.9-2.3,4.3-3.4l0,0C178.4,68.8,226.6,88.9,262.8,132.1z"
	/>
<path class="st7" d="M151.6,84.7c-1.5,1.1-2.9,2.3-4.3,3.4s-2.8,2.4-4.1,3.7C145.5,89,148.4,86.6,151.6,84.7z"/>
<path class="st6" d="M263,132.4c38.3,45.7,48.6,100.1,23.2,121.4l-69.4-82.7L263,132.4z"/>
<line class="st8" x1="147.3" y1="88.2" x2="147.1" y2="87.9"/>
<path class="st5" d="M216.9,171.1l69.4,82.7c-25.5,21.4-77.2,1.7-115.6-43.9L216.9,171.1z"/>
<polyline class="st0" points="328.6,263.5 344.1,278 344.1,344.9 "/>
<polygon class="st9" points="346.8,398.5 304.6,398.5 296.2,315.7 355.2,315.7 "/>
<polygon class="st10" points="350.6,378.2 300.8,378.2 296.2,336 355.2,336 "/>
<rect x="286.9" y="307.2" class="st1" width="77.5" height="8.2"/>
<polygon class="st1" points="358.2,307.2 293.2,307.2 296.2,297.9 355.2,297.9 "/>
<circle class="st11" cx="326.4" cy="355.6" r="11.4"/>
<rect x="65.1" y="347" class="st12" width="24.3" height="24.3"/>
<path class="st12" d="M34.5,347h27.7c1.5,0,2.7,1.1,2.8,2.6l3.3,36.4c0.1,1.6-1,2.9-2.6,3.1c-0.1,0-0.2,0-0.2,0H31.2
	c-1.6,0-2.8-1.3-2.8-2.8c0-0.1,0-0.2,0-0.2l3.3-36.4C31.8,348.1,33,347,34.5,347z"/>
<path class="st12" d="M23.5,388.2h48c1,0,1.9,0.8,1.9,1.9v6.7c0,1-0.8,1.9-1.9,1.9h-48c-1,0-1.9-0.8-1.9-1.9V390
	C21.6,389,22.5,388.2,23.5,388.2z"/>
<path class="st12" d="M92.5,347h27.7c1.5,0,2.7,1.1,2.8,2.6l3.3,36.4c0.1,1.6-1,2.9-2.6,3.1c-0.1,0-0.2,0-0.2,0H89.2
	c-1.6,0-2.8-1.3-2.8-2.8c0-0.1,0-0.2,0-0.2l3.3-36.4C89.9,348.1,91.1,347,92.5,347z"/>
<path class="st12" d="M80.9,388.2h48.7c1,0,1.9,0.8,1.9,1.9v6.7c0,1-0.8,1.9-1.9,1.9H80.9c-1,0-1.9-0.8-1.9-1.9V390
	C79,389,79.8,388.2,80.9,388.2z"/>
<path class="st12" d="M37.2,320.4h79.7c1.5,0,2.8,1.2,2.8,2.8v21c0,1.5-1.2,2.8-2.8,2.8H37.2c-1.5,0-2.8-1.2-2.8-2.8v-21
	C34.4,321.7,35.7,320.4,37.2,320.4z"/>
<path class="st12" d="M42.9,296.6h12c1.8,0,3.3,1.5,3.3,3.3v17.1c0,1.8-1.5,3.3-3.3,3.3h-12c-1.8,0-3.3-1.5-3.3-3.3v-17.1
	C39.6,298.1,41.1,296.6,42.9,296.6z"/>
<path class="st12" d="M101,296.6h12c1.8,0,3.3,1.5,3.3,3.3v17.1c0,1.8-1.5,3.3-3.3,3.3h-12c-1.8,0-3.3-1.5-3.3-3.3v-17.1
	C97.6,298.1,99.1,296.6,101,296.6z"/>
<path class="st12" d="M43.3,289h11.1c0.8,0,1.5,0.7,1.5,1.5v4.6c0,0.8-0.7,1.5-1.5,1.5H43.3c-0.8,0-1.5-0.7-1.5-1.5v-4.6
	C41.9,289.6,42.5,289,43.3,289z"/>
<path class="st12" d="M101.4,289h11.1c0.8,0,1.5,0.7,1.5,1.5v4.6c0,0.8-0.7,1.5-1.5,1.5h-11.1c-0.8,0-1.5-0.7-1.5-1.5v-4.6
	C99.9,289.6,100.6,289,101.4,289z"/>
<path class="st13" d="M54.9,334.6h42.7c2.2,0,4,1.8,4,4V353c0,2.2-1.8,4-4,4H54.9c-2.2,0-4-1.8-4-4v-14.4
	C50.9,336.4,52.7,334.6,54.9,334.6z"/>
<circle class="st12" cx="64.4" cy="345.7" r="5"/>
<circle class="st12" cx="87.7" cy="345.7" r="5"/>
<line class="st0" x1="16.1" y1="398.5" x2="47.9" y2="398.5"/>
<line class="st14" x1="47.9" y1="398.5" x2="199.2" y2="398.5"/>
<line class="st15" x1="203.2" y1="398.5" x2="394.1" y2="398.5"/>
<line class="st0" x1="397.1" y1="398.5" x2="428.9" y2="398.5"/>
<circle class="st16" cx="354.1" cy="204.5" r="9"/>
<rect x="34.5" y="159.1" transform="matrix(0.7071 -0.7071 0.7071 0.7071 -107.0915 82.3235)" class="st0" width="22.7" height="22.7"/>
<line class="st0" x1="178" y1="34.4" x2="231.1" y2="34.4"/>
<line class="st0" x1="56.9" y1="255.1" x2="83.4" y2="255.1"/>
<g>
	<path class="st17" d="M321.4,70.3c4.8,0,8.6-3.9,8.6-8.6c0-4.8-3.9-8.6-8.6-8.6s-8.6,3.9-8.6,8.6C312.8,66.4,316.6,70.3,321.4,70.3
		z"/>
</g>
<g>
	<circle class="st18" cx="22" cy="89.1" r="6.8"/>
</g>
</svg>
