<svg id="Layer_1" data-name="Layer 1" xmlns="http://www.w3.org/2000/svg" viewBox="0 0 566.93 566.93"><defs><style>.cls-1,.cls-19,.cls-4{fill:#fff;}.cls-1,.cls-10,.cls-11,.cls-12,.cls-14,.cls-15,.cls-16,.cls-17,.cls-18,.cls-19,.cls-2,.cls-3,.cls-4,.cls-5,.cls-6,.cls-8,.cls-9{stroke:#000;stroke-width:3px;}.cls-1,.cls-10,.cls-11,.cls-14,.cls-3,.cls-9{stroke-linejoin:round;}.cls-13,.cls-2{fill:#7fe2d8;}.cls-12,.cls-15,.cls-16,.cls-17,.cls-18,.cls-19,.cls-2,.cls-4,.cls-8{stroke-miterlimit:10;}.cls-3{fill:#5cd9cd;}.cls-12,.cls-14,.cls-4{stroke-linecap:round;}.cls-5{fill:#4ed6c9;}.cls-5,.cls-6{stroke-linejoin:bevel;}.cls-6{fill:#9ee9e1;}.cls-13,.cls-7{opacity:0.2;}.cls-14,.cls-16,.cls-9{fill:#f06f6f;}.cls-10{fill:#ed4f4f;}.cls-11{fill:#f38a8a;}.cls-12,.cls-18{fill:none;}.cls-15{fill:#55d8cb;}.cls-17{fill:#ed4d4d;}.cls-18{stroke-dasharray:2 2;}</style></defs><title>home_page_illlustrations</title><rect class="cls-1" x="327.83" y="203.76" width="188.43" height="225.62" rx="8.22" ry="8.22" transform="translate(40.88 -48.2) rotate(6.87)"/><path class="cls-2" d="M428.94,403.42H301.51l-30.83,13.64-30.52-13.64H141.75V290.52s-10.33-21.16-10.33-40.23c0-19.77,10.33-37.56,10.33-42V151.83l98.42-.27,30.51,14.92,30.84-14.65H439.2l52.16,0V374.66a30.16,30.16,0,0,1-30.41,29Z"/><path class="cls-3" d="M491.36,370.27V148.92c0-16.88-13.69-27.5-30.57-27.5a29.3,29.3,0,0,0-13.74,3.25C432.61,132.26,430.44,150,430.22,152V373.29a30.57,30.57,0,1,1,61.14,0"/><polyline class="cls-4" points="463.76 180.12 463.76 210.11 463.76 264.22 463.76 290.77"/><polygon class="cls-5" points="270.67 218.45 270.68 166.48 301.5 151.83 301.5 204 270.67 218.45"/><polygon class="cls-6" points="270.68 166.48 270.67 218.45 240.14 206.24 240.14 151.56 270.68 166.48"/><polygon class="cls-5" points="270.67 417.07 270.67 363.07 301.5 348.88 301.51 403.42 270.67 417.07"/><polygon class="cls-6" points="270.67 363.4 270.67 417.07 240.16 403.42 240.14 348.6 270.67 363.4"/><g class="cls-7"><path class="cls-8" d="M339.92,316.51a16.67,16.67,0,0,0,0,13,16.76,16.76,0,0,0,8.87,8.87,16.47,16.47,0,0,0,6.48,1.31h42.19a12.4,12.4,0,0,1,4.8,1,12.26,12.26,0,0,1,3.93,2.65,12.33,12.33,0,0,1-8.73,21.06h-96V214.49h90.64a17.49,17.49,0,0,1,6.87,1.39,17.15,17.15,0,0,1,5.61,3.77,17.52,17.52,0,0,1,5.17,12.49V294a12.25,12.25,0,0,1-3.6,8.71,12.26,12.26,0,0,1-3.93,2.65,12.4,12.4,0,0,1-4.8,1H355.26a16.47,16.47,0,0,0-6.48,1.31,16.6,16.6,0,0,0-8.87,8.87Z"/><polygon class="cls-8" points="301.5 214.35 301.5 364.31 301.5 364.31 270.67 376.52 270.67 226.84 270.67 226.54 301.5 214.35"/><path class="cls-8" d="M270.67,226.84V376.37l-30.53-12.05c-.62,0,1.46,0,0-.07V214.56c1.05-.05-.77-.07,0-.07Z"/><path class="cls-8" d="M240.14,214.56V364.24c-7-.21-21.81-.9-24.41-2a26.18,26.18,0,0,1-8.35-5.63,26.58,26.58,0,0,1-5.63-8.34,26.27,26.27,0,0,1-2.07-10.23v-87.4a36.2,36.2,0,0,1,10.61-25.57,36.15,36.15,0,0,1,11.49-7.75C225.43,215.8,234.48,214.83,240.14,214.56Z"/></g><path class="cls-9" d="M339.92,304.38a16.67,16.67,0,0,0,0,13,16.76,16.76,0,0,0,8.87,8.87,16.47,16.47,0,0,0,6.48,1.31h42.19a12.4,12.4,0,0,1,4.8,1,12.26,12.26,0,0,1,3.93,2.65,12.33,12.33,0,0,1-8.73,21.06h-96V202.36h90.64a17.49,17.49,0,0,1,6.87,1.39,17.15,17.15,0,0,1,5.61,3.77A17.52,17.52,0,0,1,409.78,220v61.86a12.25,12.25,0,0,1-3.6,8.71,12.26,12.26,0,0,1-3.93,2.65,12.4,12.4,0,0,1-4.8,1H355.26a16.47,16.47,0,0,0-6.48,1.31,16.6,16.6,0,0,0-8.87,8.87Z"/><polygon class="cls-10" points="301.5 202.23 301.5 352.19 301.5 352.19 270.67 364.4 270.67 214.71 270.67 214.42 301.5 202.23"/><path class="cls-11" d="M270.67,214.71V364.24l-30.53-12.05c-.62,0,1.46,0,0-.07V202.43c1.05-.05-.77-.07,0-.07Z"/><path class="cls-9" d="M240.14,202.43V352.12c-7-.21-21.81-.9-24.41-2a26.18,26.18,0,0,1-8.35-5.63,26.58,26.58,0,0,1-5.63-8.34,26.27,26.27,0,0,1-2.07-10.23v-87.4A36.2,36.2,0,0,1,210.29,213a36.15,36.15,0,0,1,11.49-7.75C225.43,203.67,234.48,202.71,240.14,202.43Z"/><polyline class="cls-12" points="157.22 188.88 157.22 168.06 178.04 168.06"/><polyline class="cls-12" points="178.04 388.64 157.22 388.64 157.22 367.83"/><circle class="cls-12" cx="145.18" cy="251.37" r="57.61" transform="translate(-144.01 226.12) rotate(-55)"/><path class="cls-13" d="M120.76,286.25A41.78,41.78,0,1,1,179,276,41.83,41.83,0,0,1,120.76,286.25Z"/><rect class="cls-4" x="95.01" y="297.19" width="21.28" height="21.28" transform="translate(195.67 -4.93) rotate(35)"/><rect class="cls-4" x="58.61" y="304.32" width="30.7" height="97.54" rx="8.91" ry="8.91" transform="translate(215.9 21.44) rotate(35)"/><rect class="cls-14" x="56.39" y="334.21" width="30.7" height="44.1" rx="1" ry="1" transform="translate(217.32 23.28) rotate(35)"/><line class="cls-12" x1="82.92" y1="352.71" x2="73.38" y2="366.33"/><path class="cls-12" d="M141.62,218.7a30,30,0,0,1,34.78,24.35"/><path class="cls-15" d="M331.89,228.92c0,5.16-9.34,14.2-9.34,14.2s-9.34-9-9.34-14.2a9.34,9.34,0,0,1,18.68,0Z"/><path class="cls-16" d="M187.61,347.73c0,5.16-9.34,14.2-9.34,14.2s-9.34-9-9.34-14.2a9.34,9.34,0,0,1,18.68,0Z"/><path class="cls-16" d="M226.07,145.09c0,5.16-9.34,14.2-9.34,14.2s-9.34-9-9.34-14.2a9.34,9.34,0,1,1,18.68,0Z"/><path class="cls-17" d="M360.59,263.08c0,5.16-9.34,14.2-9.34,14.2s-9.34-9-9.34-14.2a9.34,9.34,0,0,1,18.68,0Z"/><circle class="cls-18" cx="370.54" cy="200.51" r="26.53"/><circle class="cls-19" cx="516.82" cy="179.97" r="10.39"/><rect class="cls-19" x="152.42" y="108.35" width="26.15" height="26.15" transform="translate(-37.39 152.58) rotate(-45)"/><line class="cls-12" x1="299.15" y1="436.57" x2="329.63" y2="436.57"/><rect class="cls-18" x="384.94" y="443.86" width="19.87" height="19.87" rx="9.93" ry="9.93"/></svg>