<?xml version="1.0" encoding="utf-8"?>
<!-- Generator: Adobe Illustrator 21.0.2, SVG Export Plug-In . SVG Version: 6.00 Build 0)  -->
<svg version="1.1" id="Layer_1" xmlns="http://www.w3.org/2000/svg" xmlns:xlink="http://www.w3.org/1999/xlink" x="0px" y="0px"
	 viewBox="0 0 439.4 339" style="enable-background:new 0 0 439.4 339;" xml:space="preserve">
<style type="text/css">
	.st0{fill:#FFFFFF;stroke:#000000;stroke-width:4;stroke-linejoin:round;}
	.st1{fill:#7FE2D8;stroke:#000000;stroke-width:4;stroke-miterlimit:10;}
	.st2{fill:#5CD9CD;stroke:#000000;stroke-width:4;stroke-linejoin:round;}
	.st3{fill:#FFFFFF;stroke:#000000;stroke-width:4;stroke-linecap:round;stroke-miterlimit:10;}
	.st4{fill:#4ED6C9;stroke:#000000;stroke-width:4;stroke-linejoin:bevel;}
	.st5{fill:#9EE9E1;stroke:#000000;stroke-width:4;stroke-linejoin:bevel;}
	.st6{opacity:0.2;}
	.st7{stroke:#000000;stroke-width:4;stroke-miterlimit:10;}
	.st8{fill:#F06F6F;stroke:#000000;stroke-width:4;stroke-linejoin:round;}
	.st9{fill:#ED4F4F;stroke:#000000;stroke-width:4;stroke-linejoin:round;}
	.st10{fill:#F38A8A;stroke:#000000;stroke-width:4;stroke-linejoin:round;}
	.st11{fill:none;stroke:#000000;stroke-width:4;stroke-linecap:round;stroke-miterlimit:10;}
	.st12{opacity:0.2;fill:#7FE2D8;enable-background:new    ;}
	.st13{fill:#F06F6F;stroke:#000000;stroke-width:4;stroke-linecap:round;stroke-linejoin:round;}
	.st14{fill:#55D8CB;stroke:#000000;stroke-width:4;stroke-miterlimit:10;}
	.st15{fill:#F06F6F;stroke:#000000;stroke-width:4;stroke-miterlimit:10;}
	.st16{fill:#ED4D4D;stroke:#000000;stroke-width:4;stroke-miterlimit:10;}
	.st17{fill:none;stroke:#000000;stroke-width:4;stroke-miterlimit:10;stroke-dasharray:2.0232,3.0349;}
	.st18{fill:#FFFFFF;stroke:#000000;stroke-width:4;stroke-miterlimit:10;}
	.st19{fill:none;stroke:#000000;stroke-width:4;stroke-miterlimit:10;stroke-dasharray:4.9101,3.9183,9.820258e-03,0,0,0;}
</style>
<title>home_page_illlustrations</title>
<path class="st0" d="M277.1,92.6l145.1,17.5c3.8,0.5,6.6,3.9,6.1,7.8l-21.3,176.5c-0.5,3.8-3.9,6.6-7.8,6.1L254.2,283
	c-3.8-0.5-6.6-3.9-6.1-7.8l21.3-176.5C269.8,94.9,273.3,92.2,277.1,92.6z"/>
<path class="st1" d="M344.1,270.4H235.8l-26.2,11.6l-25.9-11.6H100v-95.9c0,0-8.8-18-8.8-34.2c0-16.8,8.8-31.9,8.8-35.7v-48
	l83.6-0.2L209.6,69l26.2-12.5h117h44.3v189.4c-0.5,13.9-12,24.8-25.8,24.6L344.1,270.4z"/>
<path class="st2" d="M397.1,242.2V54.1c0-14.3-11.6-23.4-26-23.4c-4.1,0-8.1,0.9-11.7,2.8c-12.3,6.5-14.1,21.5-14.3,23.2v188
	c0-14.3,11.6-26,26-26s26,11.6,26,26l0,0"/>
<polyline class="st3" points="373.7,80.6 373.7,106.1 373.7,152.1 373.7,174.6 "/>
<polygon class="st4" points="209.6,113.2 209.6,69 235.8,56.6 235.8,100.9 "/>
<polygon class="st5" points="209.6,69 209.6,113.2 183.6,102.8 183.6,56.3 "/>
<polygon class="st4" points="209.6,282 209.6,236.1 235.8,224 235.8,270.4 "/>
<polygon class="st5" points="209.6,236.4 209.6,282 183.6,270.4 183.6,223.8 "/>
<g class="st6">
	<path class="st7" d="M268.4,196.5c-1.5,3.5-1.5,7.5,0,11c1.4,3.4,4.1,6.1,7.5,7.5c1.7,0.7,3.6,1.1,5.5,1.1h35.9
		c1.4,0,2.8,0.3,4.1,0.8c1.2,0.5,2.4,1.3,3.3,2.3c4.1,4.1,4.1,10.7,0,14.8c-2,2-4.6,3.1-7.4,3.1h-81.6V109.8h77c2,0,4,0.4,5.8,1.2
		c1.8,0.7,3.4,1.8,4.8,3.2c2.8,2.8,4.4,6.6,4.4,10.6v52.6c0,2.8-1.1,5.4-3.1,7.4c-1,1-2.1,1.7-3.3,2.3c-1.3,0.6-2.7,0.8-4.1,0.8
		h-35.9c-1.9,0-3.8,0.4-5.5,1.1C272.5,190.4,269.8,193.1,268.4,196.5L268.4,196.5z"/>
	<polygon class="st7" points="235.8,109.7 235.8,237.1 235.8,237.1 209.6,247.5 209.6,120.3 209.6,120 	"/>
	<path class="st7" d="M209.6,120.3v127.1l-25.9-10.2c-0.5,0,1.2,0,0-0.1V109.9c0.9,0-0.7-0.1,0-0.1L209.6,120.3z"/>
	<path class="st7" d="M183.6,109.9v127.2c-5.9-0.2-18.5-0.8-20.7-1.7c-2.7-1.1-5.1-2.7-7.1-4.8c-2-2-3.7-4.4-4.8-7.1
		c-1.2-2.8-1.8-5.7-1.8-8.7v-74.3c0-8.2,3.3-16,9-21.7c2.8-2.8,6.1-5,9.8-6.6C171.1,110.9,178.8,110.1,183.6,109.9z"/>
</g>
<path class="st8" d="M268.4,186.2c-1.5,3.5-1.5,7.5,0,11c1.4,3.4,4.1,6.1,7.5,7.5c1.7,0.7,3.6,1.1,5.5,1.1h35.9
	c1.4,0,2.8,0.3,4.1,0.8c1.2,0.5,2.4,1.3,3.3,2.3c4.1,4.1,4.1,10.7,0,14.8c-2,2-4.6,3.1-7.4,3.1h-81.6V99.5h77c2,0,4,0.4,5.8,1.2
	c1.8,0.7,3.4,1.8,4.8,3.2c2.8,2.8,4.4,6.6,4.4,10.6v52.6c0,2.8-1.1,5.4-3.1,7.4c-1,1-2.1,1.7-3.3,2.3c-1.3,0.6-2.7,0.8-4.1,0.8
	h-35.9c-1.9,0-3.8,0.4-5.5,1.1C272.5,180.1,269.8,182.8,268.4,186.2L268.4,186.2z"/>
<polygon class="st9" points="235.8,99.4 235.8,226.8 235.8,226.8 209.6,237.2 209.6,110 209.6,109.7 "/>
<path class="st10" d="M209.6,110v127.1l-25.9-10.2c-0.5,0,1.2,0,0-0.1V99.6c0.9,0-0.7-0.1,0-0.1L209.6,110z"/>
<path class="st8" d="M183.6,99.6v127.2c-5.9-0.2-18.5-0.8-20.7-1.7c-2.7-1.1-5.1-2.7-7.1-4.8c-2-2-3.7-4.4-4.8-7.1
	c-1.2-2.8-1.8-5.7-1.8-8.7v-74.3c0-8.2,3.3-16,9-21.7c2.8-2.8,6.1-5,9.8-6.6C171.1,100.6,178.8,99.8,183.6,99.6z"/>
<polyline class="st11" points="113.1,88 113.1,70.3 130.8,70.3 "/>
<polyline class="st11" points="130.8,257.8 113.1,257.8 113.1,240.1 "/>
<ellipse transform="matrix(0.5736 -0.8192 0.8192 0.5736 -71.735 144.4873)" class="st11" cx="102.9" cy="141.1" rx="49" ry="49"/>
<path class="st12" d="M82.2,170.8c-16.1-11.3-20-33.4-8.7-49.5s33.4-20,49.5-8.7s20,33.4,8.7,49.5c0,0,0,0,0,0
	C120.3,178.1,98.2,182,82.2,170.8z"/>
<rect x="60.3" y="180.1" transform="matrix(0.5736 -0.8192 0.8192 0.5736 -125.3651 137.4274)" class="st3" width="18.1" height="18.1"/>
<path class="st3" d="M65.3,193.6L65.3,193.6c5.9,4.1,7.3,12.3,3.2,18.2l-32.6,46.5c-4.1,5.9-12.3,7.3-18.2,3.2l0,0
	c-5.9-4.1-7.3-12.3-3.2-18.2l32.6-46.5C51.3,190.9,59.4,189.5,65.3,193.6z"/>
<path class="st13" d="M40.4,208l20,14c0.4,0.3,0.5,0.8,0.2,1.2l-20.5,29.3c-0.3,0.4-0.8,0.5-1.2,0.2l-20-14
	c-0.4-0.3-0.5-0.8-0.2-1.2l20.5-29.3C39.5,207.8,40,207.7,40.4,208z"/>
<line class="st11" x1="50" y1="227.3" x2="41.9" y2="238.8"/>
<path class="st11" d="M99.9,113.4c13.9-2.5,27.1,6.8,29.6,20.7c0,0,0,0,0,0"/>
<path class="st14" d="M261.6,122.1c0,4.4-7.9,12.1-7.9,12.1s-7.9-7.6-7.9-12.1c0-4.4,3.6-7.9,7.9-7.9
	C258,114.1,261.6,117.7,261.6,122.1z"/>
<path class="st15" d="M139,223c0,4.4-7.9,12.1-7.9,12.1s-7.9-7.6-7.9-12.1c0-4.4,3.6-7.9,7.9-7.9C135.4,215.1,139,218.7,139,223
	L139,223z"/>
<path class="st15" d="M171.7,50.8c0,4.4-7.9,12.1-7.9,12.1s-7.9-7.6-7.9-12.1c0-4.4,3.6-7.9,7.9-7.9
	C168.1,42.9,171.7,46.4,171.7,50.8z"/>
<path class="st16" d="M286,151.1c0,4.4-7.9,12.1-7.9,12.1s-7.9-7.6-7.9-12.1c0-4.4,3.6-7.9,7.9-7.9C282.4,143.2,286,146.7,286,151.1
	z"/>
<g>
	<circle class="st17" cx="294.4" cy="97.9" r="22.5"/>
</g>
<circle class="st18" cx="418.7" cy="80.5" r="8.8"/>
<rect x="109.1" y="19.6" transform="matrix(0.7071 -0.7071 0.7071 0.7071 13.4816 93.9716)" class="st18" width="22.2" height="22.2"/>
<line class="st11" x1="233.8" y1="298.5" x2="259.7" y2="298.5"/>
<g>
	<path class="st19" d="M315.1,304.7L315.1,304.7c4.7,0,8.4,3.8,8.4,8.4v0c0,4.7-3.8,8.4-8.4,8.4h0c-4.7,0-8.4-3.8-8.4-8.4v0
		C306.7,308.5,310.5,304.7,315.1,304.7z"/>
</g>
</svg>
