<svg id="Layer_1" data-name="Layer 1" xmlns="http://www.w3.org/2000/svg" xmlns:xlink="http://www.w3.org/1999/xlink" viewBox="0 0 566.93 566.93"><defs><style>.cls-1{fill:none;stroke-linecap:round;stroke-miterlimit:10;stroke-width:4px;fill-rule:evenodd;stroke:url(#linear-gradient);}</style><linearGradient id="linear-gradient" x1="106.83" y1="283.46" x2="460.1" y2="283.46" gradientUnits="userSpaceOnUse"><stop offset="0" stop-color="#736bed"/><stop offset="1" stop-color="#8bd2fb"/></linearGradient></defs><title>trek_one</title><path class="cls-1" d="M458.1,405.89l-28,14.15c-45.19,26.09-15.48,89.2-33,99.33-19.52,7.93-25.48-61.53-64.71-52.94s-38.48,93.12-78.5,3.18C216.66,405.15,137.5,488,111.61,435.38c-11.53-23.44,16-18.62,24-27.93,36.82-21.26,9.42-70.65,45.77-94.65s44-52.49,64.13-35S292.9,280,299,259c5.81-20.08-13.42-29-21.08-40S248.81,193,254,170.59s34.43-19.21,49-40.34-21.38-60.64.12-76.32,37.1-.68,39.91,3"/></svg>