<svg id="Layer_1" data-name="Layer 1" xmlns="http://www.w3.org/2000/svg" xmlns:xlink="http://www.w3.org/1999/xlink" viewBox="0 0 566.93 566.93"><defs><style>.cls-1{fill:none;stroke-linecap:round;stroke-width:5px;fill-rule:evenodd;stroke:url(#linear-gradient);}.cls-1,.cls-2{stroke-miterlimit:10;}.cls-2{fill:#fff;stroke:#0071bc;}.cls-3{fill:#0071bc;}</style><linearGradient id="linear-gradient" x1="148.67" y1="278.23" x2="416.15" y2="278.23" gradientUnits="userSpaceOnUse"><stop offset="0" stop-color="#736bed"/><stop offset="1" stop-color="#8bd2fb"/></linearGradient></defs><title>trek_two</title><path class="cls-1" d="M413.65,404.92,385,419.42l-.56.3c-44.82,26.19-17.72,87.88-32.25,101.41a6.92,6.92,0,0,1-3.5,1.76c-18.77,3.25-25.79-63.94-65.1-55.32-40.54,8.89-39.82,96.15-81.08,3.63-.1-.22-.21-.45-.33-.65-37.87-66.24,107.8-18.72,81.05-73.12-11.93-24.26,24.88-10,24.88-28.9,0-91.81-104.58-54.9-142.72-78.94C147,278,143,267.2,174.24,238.55c20.32-18.65,68.46,36.06,74.75,14.35,6-20.78,1.25-26.44-4.41-39.06-20.63-46,42.18-5.36,47.52-28.51s-54-43.77-39-65.63-22.12-62.75.13-79,38.39-.71,41.3,3.15"/><circle class="cls-2" cx="299.66" cy="46" r="18.25"/><circle class="cls-3" cx="299.66" cy="46" r="12.75"/><circle class="cls-3" cx="416.65" cy="403.75" r="12.75"/></svg>